%TF.GenerationSoftware,KiCad,Pcbnew,8.0.7*%
%TF.CreationDate,2025-01-11T10:05:48+01:00*%
%TF.ProjectId,ESP32_Audio_Spectrum_SSD1322,45535033-325f-4417-9564-696f5f537065,rev?*%
%TF.SameCoordinates,Original*%
%TF.FileFunction,Legend,Top*%
%TF.FilePolarity,Positive*%
%FSLAX46Y46*%
G04 Gerber Fmt 4.6, Leading zero omitted, Abs format (unit mm)*
G04 Created by KiCad (PCBNEW 8.0.7) date 2025-01-11 10:05:48*
%MOMM*%
%LPD*%
G01*
G04 APERTURE LIST*
%ADD10C,0.125000*%
%ADD11C,0.250000*%
%ADD12C,0.150000*%
%ADD13C,0.120000*%
%ADD14C,0.127000*%
%ADD15C,0.100000*%
%ADD16C,1.200000*%
%ADD17C,1.600000*%
G04 APERTURE END LIST*
D10*
X114250807Y-98171175D02*
X114441283Y-98171175D01*
X114441283Y-98171175D02*
X114536521Y-98218794D01*
X114536521Y-98218794D02*
X114631759Y-98314032D01*
X114631759Y-98314032D02*
X114679378Y-98504508D01*
X114679378Y-98504508D02*
X114679378Y-98837841D01*
X114679378Y-98837841D02*
X114631759Y-99028317D01*
X114631759Y-99028317D02*
X114536521Y-99123556D01*
X114536521Y-99123556D02*
X114441283Y-99171175D01*
X114441283Y-99171175D02*
X114250807Y-99171175D01*
X114250807Y-99171175D02*
X114155569Y-99123556D01*
X114155569Y-99123556D02*
X114060331Y-99028317D01*
X114060331Y-99028317D02*
X114012712Y-98837841D01*
X114012712Y-98837841D02*
X114012712Y-98504508D01*
X114012712Y-98504508D02*
X114060331Y-98314032D01*
X114060331Y-98314032D02*
X114155569Y-98218794D01*
X114155569Y-98218794D02*
X114250807Y-98171175D01*
X115107950Y-98504508D02*
X115107950Y-99504508D01*
X115107950Y-98552127D02*
X115203188Y-98504508D01*
X115203188Y-98504508D02*
X115393664Y-98504508D01*
X115393664Y-98504508D02*
X115488902Y-98552127D01*
X115488902Y-98552127D02*
X115536521Y-98599746D01*
X115536521Y-98599746D02*
X115584140Y-98694984D01*
X115584140Y-98694984D02*
X115584140Y-98980698D01*
X115584140Y-98980698D02*
X115536521Y-99075936D01*
X115536521Y-99075936D02*
X115488902Y-99123556D01*
X115488902Y-99123556D02*
X115393664Y-99171175D01*
X115393664Y-99171175D02*
X115203188Y-99171175D01*
X115203188Y-99171175D02*
X115107950Y-99123556D01*
X116393664Y-99123556D02*
X116298426Y-99171175D01*
X116298426Y-99171175D02*
X116107950Y-99171175D01*
X116107950Y-99171175D02*
X116012712Y-99123556D01*
X116012712Y-99123556D02*
X115965093Y-99028317D01*
X115965093Y-99028317D02*
X115965093Y-98647365D01*
X115965093Y-98647365D02*
X116012712Y-98552127D01*
X116012712Y-98552127D02*
X116107950Y-98504508D01*
X116107950Y-98504508D02*
X116298426Y-98504508D01*
X116298426Y-98504508D02*
X116393664Y-98552127D01*
X116393664Y-98552127D02*
X116441283Y-98647365D01*
X116441283Y-98647365D02*
X116441283Y-98742603D01*
X116441283Y-98742603D02*
X115965093Y-98837841D01*
X116869855Y-98504508D02*
X116869855Y-99171175D01*
X116869855Y-98599746D02*
X116917474Y-98552127D01*
X116917474Y-98552127D02*
X117012712Y-98504508D01*
X117012712Y-98504508D02*
X117155569Y-98504508D01*
X117155569Y-98504508D02*
X117250807Y-98552127D01*
X117250807Y-98552127D02*
X117298426Y-98647365D01*
X117298426Y-98647365D02*
X117298426Y-99171175D01*
X117726998Y-99123556D02*
X117822236Y-99171175D01*
X117822236Y-99171175D02*
X118012712Y-99171175D01*
X118012712Y-99171175D02*
X118107950Y-99123556D01*
X118107950Y-99123556D02*
X118155569Y-99028317D01*
X118155569Y-99028317D02*
X118155569Y-98980698D01*
X118155569Y-98980698D02*
X118107950Y-98885460D01*
X118107950Y-98885460D02*
X118012712Y-98837841D01*
X118012712Y-98837841D02*
X117869855Y-98837841D01*
X117869855Y-98837841D02*
X117774617Y-98790222D01*
X117774617Y-98790222D02*
X117726998Y-98694984D01*
X117726998Y-98694984D02*
X117726998Y-98647365D01*
X117726998Y-98647365D02*
X117774617Y-98552127D01*
X117774617Y-98552127D02*
X117869855Y-98504508D01*
X117869855Y-98504508D02*
X118012712Y-98504508D01*
X118012712Y-98504508D02*
X118107950Y-98552127D01*
X118726998Y-99171175D02*
X118631760Y-99123556D01*
X118631760Y-99123556D02*
X118584141Y-99075936D01*
X118584141Y-99075936D02*
X118536522Y-98980698D01*
X118536522Y-98980698D02*
X118536522Y-98694984D01*
X118536522Y-98694984D02*
X118584141Y-98599746D01*
X118584141Y-98599746D02*
X118631760Y-98552127D01*
X118631760Y-98552127D02*
X118726998Y-98504508D01*
X118726998Y-98504508D02*
X118869855Y-98504508D01*
X118869855Y-98504508D02*
X118965093Y-98552127D01*
X118965093Y-98552127D02*
X119012712Y-98599746D01*
X119012712Y-98599746D02*
X119060331Y-98694984D01*
X119060331Y-98694984D02*
X119060331Y-98980698D01*
X119060331Y-98980698D02*
X119012712Y-99075936D01*
X119012712Y-99075936D02*
X118965093Y-99123556D01*
X118965093Y-99123556D02*
X118869855Y-99171175D01*
X118869855Y-99171175D02*
X118726998Y-99171175D01*
X119917474Y-98504508D02*
X119917474Y-99171175D01*
X119488903Y-98504508D02*
X119488903Y-99028317D01*
X119488903Y-99028317D02*
X119536522Y-99123556D01*
X119536522Y-99123556D02*
X119631760Y-99171175D01*
X119631760Y-99171175D02*
X119774617Y-99171175D01*
X119774617Y-99171175D02*
X119869855Y-99123556D01*
X119869855Y-99123556D02*
X119917474Y-99075936D01*
X120393665Y-99171175D02*
X120393665Y-98504508D01*
X120393665Y-98694984D02*
X120441284Y-98599746D01*
X120441284Y-98599746D02*
X120488903Y-98552127D01*
X120488903Y-98552127D02*
X120584141Y-98504508D01*
X120584141Y-98504508D02*
X120679379Y-98504508D01*
X121441284Y-99123556D02*
X121346046Y-99171175D01*
X121346046Y-99171175D02*
X121155570Y-99171175D01*
X121155570Y-99171175D02*
X121060332Y-99123556D01*
X121060332Y-99123556D02*
X121012713Y-99075936D01*
X121012713Y-99075936D02*
X120965094Y-98980698D01*
X120965094Y-98980698D02*
X120965094Y-98694984D01*
X120965094Y-98694984D02*
X121012713Y-98599746D01*
X121012713Y-98599746D02*
X121060332Y-98552127D01*
X121060332Y-98552127D02*
X121155570Y-98504508D01*
X121155570Y-98504508D02*
X121346046Y-98504508D01*
X121346046Y-98504508D02*
X121441284Y-98552127D01*
X122250808Y-99123556D02*
X122155570Y-99171175D01*
X122155570Y-99171175D02*
X121965094Y-99171175D01*
X121965094Y-99171175D02*
X121869856Y-99123556D01*
X121869856Y-99123556D02*
X121822237Y-99028317D01*
X121822237Y-99028317D02*
X121822237Y-98647365D01*
X121822237Y-98647365D02*
X121869856Y-98552127D01*
X121869856Y-98552127D02*
X121965094Y-98504508D01*
X121965094Y-98504508D02*
X122155570Y-98504508D01*
X122155570Y-98504508D02*
X122250808Y-98552127D01*
X122250808Y-98552127D02*
X122298427Y-98647365D01*
X122298427Y-98647365D02*
X122298427Y-98742603D01*
X122298427Y-98742603D02*
X121822237Y-98837841D01*
X122584142Y-98504508D02*
X122965094Y-98504508D01*
X122726999Y-98171175D02*
X122726999Y-99028317D01*
X122726999Y-99028317D02*
X122774618Y-99123556D01*
X122774618Y-99123556D02*
X122869856Y-99171175D01*
X122869856Y-99171175D02*
X122965094Y-99171175D01*
X123298428Y-99171175D02*
X123298428Y-98171175D01*
X123726999Y-99171175D02*
X123726999Y-98647365D01*
X123726999Y-98647365D02*
X123679380Y-98552127D01*
X123679380Y-98552127D02*
X123584142Y-98504508D01*
X123584142Y-98504508D02*
X123441285Y-98504508D01*
X123441285Y-98504508D02*
X123346047Y-98552127D01*
X123346047Y-98552127D02*
X123298428Y-98599746D01*
X124203190Y-99171175D02*
X124203190Y-98504508D01*
X124203190Y-98171175D02*
X124155571Y-98218794D01*
X124155571Y-98218794D02*
X124203190Y-98266413D01*
X124203190Y-98266413D02*
X124250809Y-98218794D01*
X124250809Y-98218794D02*
X124203190Y-98171175D01*
X124203190Y-98171175D02*
X124203190Y-98266413D01*
X124679380Y-98504508D02*
X124679380Y-99171175D01*
X124679380Y-98599746D02*
X124726999Y-98552127D01*
X124726999Y-98552127D02*
X124822237Y-98504508D01*
X124822237Y-98504508D02*
X124965094Y-98504508D01*
X124965094Y-98504508D02*
X125060332Y-98552127D01*
X125060332Y-98552127D02*
X125107951Y-98647365D01*
X125107951Y-98647365D02*
X125107951Y-99171175D01*
X126012713Y-98504508D02*
X126012713Y-99314032D01*
X126012713Y-99314032D02*
X125965094Y-99409270D01*
X125965094Y-99409270D02*
X125917475Y-99456889D01*
X125917475Y-99456889D02*
X125822237Y-99504508D01*
X125822237Y-99504508D02*
X125679380Y-99504508D01*
X125679380Y-99504508D02*
X125584142Y-99456889D01*
X126012713Y-99123556D02*
X125917475Y-99171175D01*
X125917475Y-99171175D02*
X125726999Y-99171175D01*
X125726999Y-99171175D02*
X125631761Y-99123556D01*
X125631761Y-99123556D02*
X125584142Y-99075936D01*
X125584142Y-99075936D02*
X125536523Y-98980698D01*
X125536523Y-98980698D02*
X125536523Y-98694984D01*
X125536523Y-98694984D02*
X125584142Y-98599746D01*
X125584142Y-98599746D02*
X125631761Y-98552127D01*
X125631761Y-98552127D02*
X125726999Y-98504508D01*
X125726999Y-98504508D02*
X125917475Y-98504508D01*
X125917475Y-98504508D02*
X126012713Y-98552127D01*
X126441285Y-99123556D02*
X126536523Y-99171175D01*
X126536523Y-99171175D02*
X126726999Y-99171175D01*
X126726999Y-99171175D02*
X126822237Y-99123556D01*
X126822237Y-99123556D02*
X126869856Y-99028317D01*
X126869856Y-99028317D02*
X126869856Y-98980698D01*
X126869856Y-98980698D02*
X126822237Y-98885460D01*
X126822237Y-98885460D02*
X126726999Y-98837841D01*
X126726999Y-98837841D02*
X126584142Y-98837841D01*
X126584142Y-98837841D02*
X126488904Y-98790222D01*
X126488904Y-98790222D02*
X126441285Y-98694984D01*
X126441285Y-98694984D02*
X126441285Y-98647365D01*
X126441285Y-98647365D02*
X126488904Y-98552127D01*
X126488904Y-98552127D02*
X126584142Y-98504508D01*
X126584142Y-98504508D02*
X126726999Y-98504508D01*
X126726999Y-98504508D02*
X126822237Y-98552127D01*
X127298428Y-99075936D02*
X127346047Y-99123556D01*
X127346047Y-99123556D02*
X127298428Y-99171175D01*
X127298428Y-99171175D02*
X127250809Y-99123556D01*
X127250809Y-99123556D02*
X127298428Y-99075936D01*
X127298428Y-99075936D02*
X127298428Y-99171175D01*
X128203189Y-99123556D02*
X128107951Y-99171175D01*
X128107951Y-99171175D02*
X127917475Y-99171175D01*
X127917475Y-99171175D02*
X127822237Y-99123556D01*
X127822237Y-99123556D02*
X127774618Y-99075936D01*
X127774618Y-99075936D02*
X127726999Y-98980698D01*
X127726999Y-98980698D02*
X127726999Y-98694984D01*
X127726999Y-98694984D02*
X127774618Y-98599746D01*
X127774618Y-98599746D02*
X127822237Y-98552127D01*
X127822237Y-98552127D02*
X127917475Y-98504508D01*
X127917475Y-98504508D02*
X128107951Y-98504508D01*
X128107951Y-98504508D02*
X128203189Y-98552127D01*
X128774618Y-99171175D02*
X128679380Y-99123556D01*
X128679380Y-99123556D02*
X128631761Y-99075936D01*
X128631761Y-99075936D02*
X128584142Y-98980698D01*
X128584142Y-98980698D02*
X128584142Y-98694984D01*
X128584142Y-98694984D02*
X128631761Y-98599746D01*
X128631761Y-98599746D02*
X128679380Y-98552127D01*
X128679380Y-98552127D02*
X128774618Y-98504508D01*
X128774618Y-98504508D02*
X128917475Y-98504508D01*
X128917475Y-98504508D02*
X129012713Y-98552127D01*
X129012713Y-98552127D02*
X129060332Y-98599746D01*
X129060332Y-98599746D02*
X129107951Y-98694984D01*
X129107951Y-98694984D02*
X129107951Y-98980698D01*
X129107951Y-98980698D02*
X129060332Y-99075936D01*
X129060332Y-99075936D02*
X129012713Y-99123556D01*
X129012713Y-99123556D02*
X128917475Y-99171175D01*
X128917475Y-99171175D02*
X128774618Y-99171175D01*
X129536523Y-99171175D02*
X129536523Y-98504508D01*
X129536523Y-98599746D02*
X129584142Y-98552127D01*
X129584142Y-98552127D02*
X129679380Y-98504508D01*
X129679380Y-98504508D02*
X129822237Y-98504508D01*
X129822237Y-98504508D02*
X129917475Y-98552127D01*
X129917475Y-98552127D02*
X129965094Y-98647365D01*
X129965094Y-98647365D02*
X129965094Y-99171175D01*
X129965094Y-98647365D02*
X130012713Y-98552127D01*
X130012713Y-98552127D02*
X130107951Y-98504508D01*
X130107951Y-98504508D02*
X130250808Y-98504508D01*
X130250808Y-98504508D02*
X130346047Y-98552127D01*
X130346047Y-98552127D02*
X130393666Y-98647365D01*
X130393666Y-98647365D02*
X130393666Y-99171175D01*
X114631759Y-100781119D02*
X114298426Y-100304928D01*
X114060331Y-100781119D02*
X114060331Y-99781119D01*
X114060331Y-99781119D02*
X114441283Y-99781119D01*
X114441283Y-99781119D02*
X114536521Y-99828738D01*
X114536521Y-99828738D02*
X114584140Y-99876357D01*
X114584140Y-99876357D02*
X114631759Y-99971595D01*
X114631759Y-99971595D02*
X114631759Y-100114452D01*
X114631759Y-100114452D02*
X114584140Y-100209690D01*
X114584140Y-100209690D02*
X114536521Y-100257309D01*
X114536521Y-100257309D02*
X114441283Y-100304928D01*
X114441283Y-100304928D02*
X114060331Y-100304928D01*
X115441283Y-100733500D02*
X115346045Y-100781119D01*
X115346045Y-100781119D02*
X115155569Y-100781119D01*
X115155569Y-100781119D02*
X115060331Y-100733500D01*
X115060331Y-100733500D02*
X115012712Y-100638261D01*
X115012712Y-100638261D02*
X115012712Y-100257309D01*
X115012712Y-100257309D02*
X115060331Y-100162071D01*
X115060331Y-100162071D02*
X115155569Y-100114452D01*
X115155569Y-100114452D02*
X115346045Y-100114452D01*
X115346045Y-100114452D02*
X115441283Y-100162071D01*
X115441283Y-100162071D02*
X115488902Y-100257309D01*
X115488902Y-100257309D02*
X115488902Y-100352547D01*
X115488902Y-100352547D02*
X115012712Y-100447785D01*
X115822236Y-100114452D02*
X116060331Y-100781119D01*
X116060331Y-100781119D02*
X116298426Y-100114452D01*
X117346046Y-100114452D02*
X117584141Y-100781119D01*
X117584141Y-100781119D02*
X117822236Y-100114452D01*
X118726998Y-100781119D02*
X118155570Y-100781119D01*
X118441284Y-100781119D02*
X118441284Y-99781119D01*
X118441284Y-99781119D02*
X118346046Y-99923976D01*
X118346046Y-99923976D02*
X118250808Y-100019214D01*
X118250808Y-100019214D02*
X118155570Y-100066833D01*
X119155570Y-100685880D02*
X119203189Y-100733500D01*
X119203189Y-100733500D02*
X119155570Y-100781119D01*
X119155570Y-100781119D02*
X119107951Y-100733500D01*
X119107951Y-100733500D02*
X119155570Y-100685880D01*
X119155570Y-100685880D02*
X119155570Y-100781119D01*
X119822236Y-99781119D02*
X119917474Y-99781119D01*
X119917474Y-99781119D02*
X120012712Y-99828738D01*
X120012712Y-99828738D02*
X120060331Y-99876357D01*
X120060331Y-99876357D02*
X120107950Y-99971595D01*
X120107950Y-99971595D02*
X120155569Y-100162071D01*
X120155569Y-100162071D02*
X120155569Y-100400166D01*
X120155569Y-100400166D02*
X120107950Y-100590642D01*
X120107950Y-100590642D02*
X120060331Y-100685880D01*
X120060331Y-100685880D02*
X120012712Y-100733500D01*
X120012712Y-100733500D02*
X119917474Y-100781119D01*
X119917474Y-100781119D02*
X119822236Y-100781119D01*
X119822236Y-100781119D02*
X119726998Y-100733500D01*
X119726998Y-100733500D02*
X119679379Y-100685880D01*
X119679379Y-100685880D02*
X119631760Y-100590642D01*
X119631760Y-100590642D02*
X119584141Y-100400166D01*
X119584141Y-100400166D02*
X119584141Y-100162071D01*
X119584141Y-100162071D02*
X119631760Y-99971595D01*
X119631760Y-99971595D02*
X119679379Y-99876357D01*
X119679379Y-99876357D02*
X119726998Y-99828738D01*
X119726998Y-99828738D02*
X119822236Y-99781119D01*
D11*
X114243044Y-96977285D02*
X114814473Y-96977285D01*
X114128758Y-97320142D02*
X114528758Y-96120142D01*
X114528758Y-96120142D02*
X114928758Y-97320142D01*
X115843044Y-96520142D02*
X115843044Y-97320142D01*
X115328758Y-96520142D02*
X115328758Y-97148714D01*
X115328758Y-97148714D02*
X115385901Y-97263000D01*
X115385901Y-97263000D02*
X115500186Y-97320142D01*
X115500186Y-97320142D02*
X115671615Y-97320142D01*
X115671615Y-97320142D02*
X115785901Y-97263000D01*
X115785901Y-97263000D02*
X115843044Y-97205857D01*
X116928758Y-97320142D02*
X116928758Y-96120142D01*
X116928758Y-97263000D02*
X116814472Y-97320142D01*
X116814472Y-97320142D02*
X116585900Y-97320142D01*
X116585900Y-97320142D02*
X116471615Y-97263000D01*
X116471615Y-97263000D02*
X116414472Y-97205857D01*
X116414472Y-97205857D02*
X116357329Y-97091571D01*
X116357329Y-97091571D02*
X116357329Y-96748714D01*
X116357329Y-96748714D02*
X116414472Y-96634428D01*
X116414472Y-96634428D02*
X116471615Y-96577285D01*
X116471615Y-96577285D02*
X116585900Y-96520142D01*
X116585900Y-96520142D02*
X116814472Y-96520142D01*
X116814472Y-96520142D02*
X116928758Y-96577285D01*
X117500186Y-97320142D02*
X117500186Y-96520142D01*
X117500186Y-96120142D02*
X117443043Y-96177285D01*
X117443043Y-96177285D02*
X117500186Y-96234428D01*
X117500186Y-96234428D02*
X117557329Y-96177285D01*
X117557329Y-96177285D02*
X117500186Y-96120142D01*
X117500186Y-96120142D02*
X117500186Y-96234428D01*
X118243043Y-97320142D02*
X118128758Y-97263000D01*
X118128758Y-97263000D02*
X118071615Y-97205857D01*
X118071615Y-97205857D02*
X118014472Y-97091571D01*
X118014472Y-97091571D02*
X118014472Y-96748714D01*
X118014472Y-96748714D02*
X118071615Y-96634428D01*
X118071615Y-96634428D02*
X118128758Y-96577285D01*
X118128758Y-96577285D02*
X118243043Y-96520142D01*
X118243043Y-96520142D02*
X118414472Y-96520142D01*
X118414472Y-96520142D02*
X118528758Y-96577285D01*
X118528758Y-96577285D02*
X118585901Y-96634428D01*
X118585901Y-96634428D02*
X118643043Y-96748714D01*
X118643043Y-96748714D02*
X118643043Y-97091571D01*
X118643043Y-97091571D02*
X118585901Y-97205857D01*
X118585901Y-97205857D02*
X118528758Y-97263000D01*
X118528758Y-97263000D02*
X118414472Y-97320142D01*
X118414472Y-97320142D02*
X118243043Y-97320142D01*
X120014472Y-97263000D02*
X120185901Y-97320142D01*
X120185901Y-97320142D02*
X120471615Y-97320142D01*
X120471615Y-97320142D02*
X120585901Y-97263000D01*
X120585901Y-97263000D02*
X120643043Y-97205857D01*
X120643043Y-97205857D02*
X120700186Y-97091571D01*
X120700186Y-97091571D02*
X120700186Y-96977285D01*
X120700186Y-96977285D02*
X120643043Y-96863000D01*
X120643043Y-96863000D02*
X120585901Y-96805857D01*
X120585901Y-96805857D02*
X120471615Y-96748714D01*
X120471615Y-96748714D02*
X120243043Y-96691571D01*
X120243043Y-96691571D02*
X120128758Y-96634428D01*
X120128758Y-96634428D02*
X120071615Y-96577285D01*
X120071615Y-96577285D02*
X120014472Y-96463000D01*
X120014472Y-96463000D02*
X120014472Y-96348714D01*
X120014472Y-96348714D02*
X120071615Y-96234428D01*
X120071615Y-96234428D02*
X120128758Y-96177285D01*
X120128758Y-96177285D02*
X120243043Y-96120142D01*
X120243043Y-96120142D02*
X120528758Y-96120142D01*
X120528758Y-96120142D02*
X120700186Y-96177285D01*
X121214472Y-96520142D02*
X121214472Y-97720142D01*
X121214472Y-96577285D02*
X121328758Y-96520142D01*
X121328758Y-96520142D02*
X121557329Y-96520142D01*
X121557329Y-96520142D02*
X121671615Y-96577285D01*
X121671615Y-96577285D02*
X121728758Y-96634428D01*
X121728758Y-96634428D02*
X121785900Y-96748714D01*
X121785900Y-96748714D02*
X121785900Y-97091571D01*
X121785900Y-97091571D02*
X121728758Y-97205857D01*
X121728758Y-97205857D02*
X121671615Y-97263000D01*
X121671615Y-97263000D02*
X121557329Y-97320142D01*
X121557329Y-97320142D02*
X121328758Y-97320142D01*
X121328758Y-97320142D02*
X121214472Y-97263000D01*
X122757329Y-97263000D02*
X122643043Y-97320142D01*
X122643043Y-97320142D02*
X122414472Y-97320142D01*
X122414472Y-97320142D02*
X122300186Y-97263000D01*
X122300186Y-97263000D02*
X122243043Y-97148714D01*
X122243043Y-97148714D02*
X122243043Y-96691571D01*
X122243043Y-96691571D02*
X122300186Y-96577285D01*
X122300186Y-96577285D02*
X122414472Y-96520142D01*
X122414472Y-96520142D02*
X122643043Y-96520142D01*
X122643043Y-96520142D02*
X122757329Y-96577285D01*
X122757329Y-96577285D02*
X122814472Y-96691571D01*
X122814472Y-96691571D02*
X122814472Y-96805857D01*
X122814472Y-96805857D02*
X122243043Y-96920142D01*
X123843043Y-97263000D02*
X123728757Y-97320142D01*
X123728757Y-97320142D02*
X123500185Y-97320142D01*
X123500185Y-97320142D02*
X123385900Y-97263000D01*
X123385900Y-97263000D02*
X123328757Y-97205857D01*
X123328757Y-97205857D02*
X123271614Y-97091571D01*
X123271614Y-97091571D02*
X123271614Y-96748714D01*
X123271614Y-96748714D02*
X123328757Y-96634428D01*
X123328757Y-96634428D02*
X123385900Y-96577285D01*
X123385900Y-96577285D02*
X123500185Y-96520142D01*
X123500185Y-96520142D02*
X123728757Y-96520142D01*
X123728757Y-96520142D02*
X123843043Y-96577285D01*
X124185899Y-96520142D02*
X124643042Y-96520142D01*
X124357328Y-96120142D02*
X124357328Y-97148714D01*
X124357328Y-97148714D02*
X124414471Y-97263000D01*
X124414471Y-97263000D02*
X124528756Y-97320142D01*
X124528756Y-97320142D02*
X124643042Y-97320142D01*
X125043042Y-97320142D02*
X125043042Y-96520142D01*
X125043042Y-96748714D02*
X125100185Y-96634428D01*
X125100185Y-96634428D02*
X125157328Y-96577285D01*
X125157328Y-96577285D02*
X125271613Y-96520142D01*
X125271613Y-96520142D02*
X125385899Y-96520142D01*
X126300185Y-96520142D02*
X126300185Y-97320142D01*
X125785899Y-96520142D02*
X125785899Y-97148714D01*
X125785899Y-97148714D02*
X125843042Y-97263000D01*
X125843042Y-97263000D02*
X125957327Y-97320142D01*
X125957327Y-97320142D02*
X126128756Y-97320142D01*
X126128756Y-97320142D02*
X126243042Y-97263000D01*
X126243042Y-97263000D02*
X126300185Y-97205857D01*
X126871613Y-97320142D02*
X126871613Y-96520142D01*
X126871613Y-96634428D02*
X126928756Y-96577285D01*
X126928756Y-96577285D02*
X127043041Y-96520142D01*
X127043041Y-96520142D02*
X127214470Y-96520142D01*
X127214470Y-96520142D02*
X127328756Y-96577285D01*
X127328756Y-96577285D02*
X127385899Y-96691571D01*
X127385899Y-96691571D02*
X127385899Y-97320142D01*
X127385899Y-96691571D02*
X127443041Y-96577285D01*
X127443041Y-96577285D02*
X127557327Y-96520142D01*
X127557327Y-96520142D02*
X127728756Y-96520142D01*
X127728756Y-96520142D02*
X127843041Y-96577285D01*
X127843041Y-96577285D02*
X127900184Y-96691571D01*
X127900184Y-96691571D02*
X127900184Y-97320142D01*
X129328756Y-96977285D02*
X129900185Y-96977285D01*
X129214470Y-97320142D02*
X129614470Y-96120142D01*
X129614470Y-96120142D02*
X130014470Y-97320142D01*
X130414470Y-96520142D02*
X130414470Y-97320142D01*
X130414470Y-96634428D02*
X130471613Y-96577285D01*
X130471613Y-96577285D02*
X130585898Y-96520142D01*
X130585898Y-96520142D02*
X130757327Y-96520142D01*
X130757327Y-96520142D02*
X130871613Y-96577285D01*
X130871613Y-96577285D02*
X130928756Y-96691571D01*
X130928756Y-96691571D02*
X130928756Y-97320142D01*
X132014470Y-97320142D02*
X132014470Y-96691571D01*
X132014470Y-96691571D02*
X131957327Y-96577285D01*
X131957327Y-96577285D02*
X131843041Y-96520142D01*
X131843041Y-96520142D02*
X131614470Y-96520142D01*
X131614470Y-96520142D02*
X131500184Y-96577285D01*
X132014470Y-97263000D02*
X131900184Y-97320142D01*
X131900184Y-97320142D02*
X131614470Y-97320142D01*
X131614470Y-97320142D02*
X131500184Y-97263000D01*
X131500184Y-97263000D02*
X131443041Y-97148714D01*
X131443041Y-97148714D02*
X131443041Y-97034428D01*
X131443041Y-97034428D02*
X131500184Y-96920142D01*
X131500184Y-96920142D02*
X131614470Y-96863000D01*
X131614470Y-96863000D02*
X131900184Y-96863000D01*
X131900184Y-96863000D02*
X132014470Y-96805857D01*
X132757326Y-97320142D02*
X132643041Y-97263000D01*
X132643041Y-97263000D02*
X132585898Y-97148714D01*
X132585898Y-97148714D02*
X132585898Y-96120142D01*
X133100183Y-96520142D02*
X133385897Y-97320142D01*
X133671612Y-96520142D02*
X133385897Y-97320142D01*
X133385897Y-97320142D02*
X133271612Y-97605857D01*
X133271612Y-97605857D02*
X133214469Y-97663000D01*
X133214469Y-97663000D02*
X133100183Y-97720142D01*
X134014469Y-96520142D02*
X134643041Y-96520142D01*
X134643041Y-96520142D02*
X134014469Y-97320142D01*
X134014469Y-97320142D02*
X134643041Y-97320142D01*
X135557327Y-97263000D02*
X135443041Y-97320142D01*
X135443041Y-97320142D02*
X135214470Y-97320142D01*
X135214470Y-97320142D02*
X135100184Y-97263000D01*
X135100184Y-97263000D02*
X135043041Y-97148714D01*
X135043041Y-97148714D02*
X135043041Y-96691571D01*
X135043041Y-96691571D02*
X135100184Y-96577285D01*
X135100184Y-96577285D02*
X135214470Y-96520142D01*
X135214470Y-96520142D02*
X135443041Y-96520142D01*
X135443041Y-96520142D02*
X135557327Y-96577285D01*
X135557327Y-96577285D02*
X135614470Y-96691571D01*
X135614470Y-96691571D02*
X135614470Y-96805857D01*
X135614470Y-96805857D02*
X135043041Y-96920142D01*
X136128755Y-97320142D02*
X136128755Y-96520142D01*
X136128755Y-96748714D02*
X136185898Y-96634428D01*
X136185898Y-96634428D02*
X136243041Y-96577285D01*
X136243041Y-96577285D02*
X136357326Y-96520142D01*
X136357326Y-96520142D02*
X136471612Y-96520142D01*
D10*
X117732904Y-86252856D02*
X117756714Y-86181428D01*
X117756714Y-86181428D02*
X117780523Y-86157618D01*
X117780523Y-86157618D02*
X117828142Y-86133809D01*
X117828142Y-86133809D02*
X117899571Y-86133809D01*
X117899571Y-86133809D02*
X117947190Y-86157618D01*
X117947190Y-86157618D02*
X117971000Y-86181428D01*
X117971000Y-86181428D02*
X117994809Y-86229047D01*
X117994809Y-86229047D02*
X117994809Y-86419523D01*
X117994809Y-86419523D02*
X117494809Y-86419523D01*
X117494809Y-86419523D02*
X117494809Y-86252856D01*
X117494809Y-86252856D02*
X117518619Y-86205237D01*
X117518619Y-86205237D02*
X117542428Y-86181428D01*
X117542428Y-86181428D02*
X117590047Y-86157618D01*
X117590047Y-86157618D02*
X117637666Y-86157618D01*
X117637666Y-86157618D02*
X117685285Y-86181428D01*
X117685285Y-86181428D02*
X117709095Y-86205237D01*
X117709095Y-86205237D02*
X117732904Y-86252856D01*
X117732904Y-86252856D02*
X117732904Y-86419523D01*
X117851952Y-85943332D02*
X117851952Y-85705237D01*
X117994809Y-85990951D02*
X117494809Y-85824285D01*
X117494809Y-85824285D02*
X117994809Y-85657618D01*
X117994809Y-85205238D02*
X117756714Y-85371904D01*
X117994809Y-85490952D02*
X117494809Y-85490952D01*
X117494809Y-85490952D02*
X117494809Y-85300476D01*
X117494809Y-85300476D02*
X117518619Y-85252857D01*
X117518619Y-85252857D02*
X117542428Y-85229047D01*
X117542428Y-85229047D02*
X117590047Y-85205238D01*
X117590047Y-85205238D02*
X117661476Y-85205238D01*
X117661476Y-85205238D02*
X117709095Y-85229047D01*
X117709095Y-85229047D02*
X117732904Y-85252857D01*
X117732904Y-85252857D02*
X117756714Y-85300476D01*
X117756714Y-85300476D02*
X117756714Y-85490952D01*
X117994809Y-84610000D02*
X117494809Y-84610000D01*
X117494809Y-84610000D02*
X117851952Y-84443333D01*
X117851952Y-84443333D02*
X117494809Y-84276667D01*
X117494809Y-84276667D02*
X117994809Y-84276667D01*
X117494809Y-83943333D02*
X117494809Y-83848095D01*
X117494809Y-83848095D02*
X117518619Y-83800476D01*
X117518619Y-83800476D02*
X117566238Y-83752857D01*
X117566238Y-83752857D02*
X117661476Y-83729047D01*
X117661476Y-83729047D02*
X117828142Y-83729047D01*
X117828142Y-83729047D02*
X117923380Y-83752857D01*
X117923380Y-83752857D02*
X117971000Y-83800476D01*
X117971000Y-83800476D02*
X117994809Y-83848095D01*
X117994809Y-83848095D02*
X117994809Y-83943333D01*
X117994809Y-83943333D02*
X117971000Y-83990952D01*
X117971000Y-83990952D02*
X117923380Y-84038571D01*
X117923380Y-84038571D02*
X117828142Y-84062380D01*
X117828142Y-84062380D02*
X117661476Y-84062380D01*
X117661476Y-84062380D02*
X117566238Y-84038571D01*
X117566238Y-84038571D02*
X117518619Y-83990952D01*
X117518619Y-83990952D02*
X117494809Y-83943333D01*
X117994809Y-83514761D02*
X117494809Y-83514761D01*
X117494809Y-83514761D02*
X117494809Y-83395713D01*
X117494809Y-83395713D02*
X117518619Y-83324285D01*
X117518619Y-83324285D02*
X117566238Y-83276666D01*
X117566238Y-83276666D02*
X117613857Y-83252856D01*
X117613857Y-83252856D02*
X117709095Y-83229047D01*
X117709095Y-83229047D02*
X117780523Y-83229047D01*
X117780523Y-83229047D02*
X117875761Y-83252856D01*
X117875761Y-83252856D02*
X117923380Y-83276666D01*
X117923380Y-83276666D02*
X117971000Y-83324285D01*
X117971000Y-83324285D02*
X117994809Y-83395713D01*
X117994809Y-83395713D02*
X117994809Y-83514761D01*
X117732904Y-83014761D02*
X117732904Y-82848094D01*
X117994809Y-82776666D02*
X117994809Y-83014761D01*
X117994809Y-83014761D02*
X117494809Y-83014761D01*
X117494809Y-83014761D02*
X117494809Y-82776666D01*
D12*
X157299819Y-88714166D02*
X156823628Y-89047499D01*
X157299819Y-89285594D02*
X156299819Y-89285594D01*
X156299819Y-89285594D02*
X156299819Y-88904642D01*
X156299819Y-88904642D02*
X156347438Y-88809404D01*
X156347438Y-88809404D02*
X156395057Y-88761785D01*
X156395057Y-88761785D02*
X156490295Y-88714166D01*
X156490295Y-88714166D02*
X156633152Y-88714166D01*
X156633152Y-88714166D02*
X156728390Y-88761785D01*
X156728390Y-88761785D02*
X156776009Y-88809404D01*
X156776009Y-88809404D02*
X156823628Y-88904642D01*
X156823628Y-88904642D02*
X156823628Y-89285594D01*
X156299819Y-87809404D02*
X156299819Y-88285594D01*
X156299819Y-88285594D02*
X156776009Y-88333213D01*
X156776009Y-88333213D02*
X156728390Y-88285594D01*
X156728390Y-88285594D02*
X156680771Y-88190356D01*
X156680771Y-88190356D02*
X156680771Y-87952261D01*
X156680771Y-87952261D02*
X156728390Y-87857023D01*
X156728390Y-87857023D02*
X156776009Y-87809404D01*
X156776009Y-87809404D02*
X156871247Y-87761785D01*
X156871247Y-87761785D02*
X157109342Y-87761785D01*
X157109342Y-87761785D02*
X157204580Y-87809404D01*
X157204580Y-87809404D02*
X157252200Y-87857023D01*
X157252200Y-87857023D02*
X157299819Y-87952261D01*
X157299819Y-87952261D02*
X157299819Y-88190356D01*
X157299819Y-88190356D02*
X157252200Y-88285594D01*
X157252200Y-88285594D02*
X157204580Y-88333213D01*
X160599819Y-92539166D02*
X160123628Y-92872499D01*
X160599819Y-93110594D02*
X159599819Y-93110594D01*
X159599819Y-93110594D02*
X159599819Y-92729642D01*
X159599819Y-92729642D02*
X159647438Y-92634404D01*
X159647438Y-92634404D02*
X159695057Y-92586785D01*
X159695057Y-92586785D02*
X159790295Y-92539166D01*
X159790295Y-92539166D02*
X159933152Y-92539166D01*
X159933152Y-92539166D02*
X160028390Y-92586785D01*
X160028390Y-92586785D02*
X160076009Y-92634404D01*
X160076009Y-92634404D02*
X160123628Y-92729642D01*
X160123628Y-92729642D02*
X160123628Y-93110594D01*
X159599819Y-92205832D02*
X159599819Y-91586785D01*
X159599819Y-91586785D02*
X159980771Y-91920118D01*
X159980771Y-91920118D02*
X159980771Y-91777261D01*
X159980771Y-91777261D02*
X160028390Y-91682023D01*
X160028390Y-91682023D02*
X160076009Y-91634404D01*
X160076009Y-91634404D02*
X160171247Y-91586785D01*
X160171247Y-91586785D02*
X160409342Y-91586785D01*
X160409342Y-91586785D02*
X160504580Y-91634404D01*
X160504580Y-91634404D02*
X160552200Y-91682023D01*
X160552200Y-91682023D02*
X160599819Y-91777261D01*
X160599819Y-91777261D02*
X160599819Y-92062975D01*
X160599819Y-92062975D02*
X160552200Y-92158213D01*
X160552200Y-92158213D02*
X160504580Y-92205832D01*
X142104761Y-89234819D02*
X141771428Y-88758628D01*
X141533333Y-89234819D02*
X141533333Y-88234819D01*
X141533333Y-88234819D02*
X141914285Y-88234819D01*
X141914285Y-88234819D02*
X142009523Y-88282438D01*
X142009523Y-88282438D02*
X142057142Y-88330057D01*
X142057142Y-88330057D02*
X142104761Y-88425295D01*
X142104761Y-88425295D02*
X142104761Y-88568152D01*
X142104761Y-88568152D02*
X142057142Y-88663390D01*
X142057142Y-88663390D02*
X142009523Y-88711009D01*
X142009523Y-88711009D02*
X141914285Y-88758628D01*
X141914285Y-88758628D02*
X141533333Y-88758628D01*
X142390476Y-88234819D02*
X142723809Y-89234819D01*
X142723809Y-89234819D02*
X143057142Y-88234819D01*
X143914285Y-89234819D02*
X143342857Y-89234819D01*
X143628571Y-89234819D02*
X143628571Y-88234819D01*
X143628571Y-88234819D02*
X143533333Y-88377676D01*
X143533333Y-88377676D02*
X143438095Y-88472914D01*
X143438095Y-88472914D02*
X143342857Y-88520533D01*
X150110833Y-97794819D02*
X149777500Y-97318628D01*
X149539405Y-97794819D02*
X149539405Y-96794819D01*
X149539405Y-96794819D02*
X149920357Y-96794819D01*
X149920357Y-96794819D02*
X150015595Y-96842438D01*
X150015595Y-96842438D02*
X150063214Y-96890057D01*
X150063214Y-96890057D02*
X150110833Y-96985295D01*
X150110833Y-96985295D02*
X150110833Y-97128152D01*
X150110833Y-97128152D02*
X150063214Y-97223390D01*
X150063214Y-97223390D02*
X150015595Y-97271009D01*
X150015595Y-97271009D02*
X149920357Y-97318628D01*
X149920357Y-97318628D02*
X149539405Y-97318628D01*
X150967976Y-97128152D02*
X150967976Y-97794819D01*
X150729881Y-96747200D02*
X150491786Y-97461485D01*
X150491786Y-97461485D02*
X151110833Y-97461485D01*
X188740833Y-102564819D02*
X188407500Y-102088628D01*
X188169405Y-102564819D02*
X188169405Y-101564819D01*
X188169405Y-101564819D02*
X188550357Y-101564819D01*
X188550357Y-101564819D02*
X188645595Y-101612438D01*
X188645595Y-101612438D02*
X188693214Y-101660057D01*
X188693214Y-101660057D02*
X188740833Y-101755295D01*
X188740833Y-101755295D02*
X188740833Y-101898152D01*
X188740833Y-101898152D02*
X188693214Y-101993390D01*
X188693214Y-101993390D02*
X188645595Y-102041009D01*
X188645595Y-102041009D02*
X188550357Y-102088628D01*
X188550357Y-102088628D02*
X188169405Y-102088628D01*
X189693214Y-102564819D02*
X189121786Y-102564819D01*
X189407500Y-102564819D02*
X189407500Y-101564819D01*
X189407500Y-101564819D02*
X189312262Y-101707676D01*
X189312262Y-101707676D02*
X189217024Y-101802914D01*
X189217024Y-101802914D02*
X189121786Y-101850533D01*
X162778333Y-93499580D02*
X162730714Y-93547200D01*
X162730714Y-93547200D02*
X162587857Y-93594819D01*
X162587857Y-93594819D02*
X162492619Y-93594819D01*
X162492619Y-93594819D02*
X162349762Y-93547200D01*
X162349762Y-93547200D02*
X162254524Y-93451961D01*
X162254524Y-93451961D02*
X162206905Y-93356723D01*
X162206905Y-93356723D02*
X162159286Y-93166247D01*
X162159286Y-93166247D02*
X162159286Y-93023390D01*
X162159286Y-93023390D02*
X162206905Y-92832914D01*
X162206905Y-92832914D02*
X162254524Y-92737676D01*
X162254524Y-92737676D02*
X162349762Y-92642438D01*
X162349762Y-92642438D02*
X162492619Y-92594819D01*
X162492619Y-92594819D02*
X162587857Y-92594819D01*
X162587857Y-92594819D02*
X162730714Y-92642438D01*
X162730714Y-92642438D02*
X162778333Y-92690057D01*
X163730714Y-93594819D02*
X163159286Y-93594819D01*
X163445000Y-93594819D02*
X163445000Y-92594819D01*
X163445000Y-92594819D02*
X163349762Y-92737676D01*
X163349762Y-92737676D02*
X163254524Y-92832914D01*
X163254524Y-92832914D02*
X163159286Y-92880533D01*
X175849819Y-98451904D02*
X176659342Y-98451904D01*
X176659342Y-98451904D02*
X176754580Y-98404285D01*
X176754580Y-98404285D02*
X176802200Y-98356666D01*
X176802200Y-98356666D02*
X176849819Y-98261428D01*
X176849819Y-98261428D02*
X176849819Y-98070952D01*
X176849819Y-98070952D02*
X176802200Y-97975714D01*
X176802200Y-97975714D02*
X176754580Y-97928095D01*
X176754580Y-97928095D02*
X176659342Y-97880476D01*
X176659342Y-97880476D02*
X175849819Y-97880476D01*
X176849819Y-96880476D02*
X176849819Y-97451904D01*
X176849819Y-97166190D02*
X175849819Y-97166190D01*
X175849819Y-97166190D02*
X175992676Y-97261428D01*
X175992676Y-97261428D02*
X176087914Y-97356666D01*
X176087914Y-97356666D02*
X176135533Y-97451904D01*
X201119819Y-110007619D02*
X200643628Y-110340952D01*
X201119819Y-110579047D02*
X200119819Y-110579047D01*
X200119819Y-110579047D02*
X200119819Y-110198095D01*
X200119819Y-110198095D02*
X200167438Y-110102857D01*
X200167438Y-110102857D02*
X200215057Y-110055238D01*
X200215057Y-110055238D02*
X200310295Y-110007619D01*
X200310295Y-110007619D02*
X200453152Y-110007619D01*
X200453152Y-110007619D02*
X200548390Y-110055238D01*
X200548390Y-110055238D02*
X200596009Y-110102857D01*
X200596009Y-110102857D02*
X200643628Y-110198095D01*
X200643628Y-110198095D02*
X200643628Y-110579047D01*
X201072200Y-109626666D02*
X201119819Y-109483809D01*
X201119819Y-109483809D02*
X201119819Y-109245714D01*
X201119819Y-109245714D02*
X201072200Y-109150476D01*
X201072200Y-109150476D02*
X201024580Y-109102857D01*
X201024580Y-109102857D02*
X200929342Y-109055238D01*
X200929342Y-109055238D02*
X200834104Y-109055238D01*
X200834104Y-109055238D02*
X200738866Y-109102857D01*
X200738866Y-109102857D02*
X200691247Y-109150476D01*
X200691247Y-109150476D02*
X200643628Y-109245714D01*
X200643628Y-109245714D02*
X200596009Y-109436190D01*
X200596009Y-109436190D02*
X200548390Y-109531428D01*
X200548390Y-109531428D02*
X200500771Y-109579047D01*
X200500771Y-109579047D02*
X200405533Y-109626666D01*
X200405533Y-109626666D02*
X200310295Y-109626666D01*
X200310295Y-109626666D02*
X200215057Y-109579047D01*
X200215057Y-109579047D02*
X200167438Y-109531428D01*
X200167438Y-109531428D02*
X200119819Y-109436190D01*
X200119819Y-109436190D02*
X200119819Y-109198095D01*
X200119819Y-109198095D02*
X200167438Y-109055238D01*
X200119819Y-108769523D02*
X200119819Y-108198095D01*
X201119819Y-108483809D02*
X200119819Y-108483809D01*
X151358095Y-93679819D02*
X151358095Y-94489342D01*
X151358095Y-94489342D02*
X151405714Y-94584580D01*
X151405714Y-94584580D02*
X151453333Y-94632200D01*
X151453333Y-94632200D02*
X151548571Y-94679819D01*
X151548571Y-94679819D02*
X151739047Y-94679819D01*
X151739047Y-94679819D02*
X151834285Y-94632200D01*
X151834285Y-94632200D02*
X151881904Y-94584580D01*
X151881904Y-94584580D02*
X151929523Y-94489342D01*
X151929523Y-94489342D02*
X151929523Y-93679819D01*
X152358095Y-93775057D02*
X152405714Y-93727438D01*
X152405714Y-93727438D02*
X152500952Y-93679819D01*
X152500952Y-93679819D02*
X152739047Y-93679819D01*
X152739047Y-93679819D02*
X152834285Y-93727438D01*
X152834285Y-93727438D02*
X152881904Y-93775057D01*
X152881904Y-93775057D02*
X152929523Y-93870295D01*
X152929523Y-93870295D02*
X152929523Y-93965533D01*
X152929523Y-93965533D02*
X152881904Y-94108390D01*
X152881904Y-94108390D02*
X152310476Y-94679819D01*
X152310476Y-94679819D02*
X152929523Y-94679819D01*
X151740833Y-87564819D02*
X151407500Y-87088628D01*
X151169405Y-87564819D02*
X151169405Y-86564819D01*
X151169405Y-86564819D02*
X151550357Y-86564819D01*
X151550357Y-86564819D02*
X151645595Y-86612438D01*
X151645595Y-86612438D02*
X151693214Y-86660057D01*
X151693214Y-86660057D02*
X151740833Y-86755295D01*
X151740833Y-86755295D02*
X151740833Y-86898152D01*
X151740833Y-86898152D02*
X151693214Y-86993390D01*
X151693214Y-86993390D02*
X151645595Y-87041009D01*
X151645595Y-87041009D02*
X151550357Y-87088628D01*
X151550357Y-87088628D02*
X151169405Y-87088628D01*
X152597976Y-86564819D02*
X152407500Y-86564819D01*
X152407500Y-86564819D02*
X152312262Y-86612438D01*
X152312262Y-86612438D02*
X152264643Y-86660057D01*
X152264643Y-86660057D02*
X152169405Y-86802914D01*
X152169405Y-86802914D02*
X152121786Y-86993390D01*
X152121786Y-86993390D02*
X152121786Y-87374342D01*
X152121786Y-87374342D02*
X152169405Y-87469580D01*
X152169405Y-87469580D02*
X152217024Y-87517200D01*
X152217024Y-87517200D02*
X152312262Y-87564819D01*
X152312262Y-87564819D02*
X152502738Y-87564819D01*
X152502738Y-87564819D02*
X152597976Y-87517200D01*
X152597976Y-87517200D02*
X152645595Y-87469580D01*
X152645595Y-87469580D02*
X152693214Y-87374342D01*
X152693214Y-87374342D02*
X152693214Y-87136247D01*
X152693214Y-87136247D02*
X152645595Y-87041009D01*
X152645595Y-87041009D02*
X152597976Y-86993390D01*
X152597976Y-86993390D02*
X152502738Y-86945771D01*
X152502738Y-86945771D02*
X152312262Y-86945771D01*
X152312262Y-86945771D02*
X152217024Y-86993390D01*
X152217024Y-86993390D02*
X152169405Y-87041009D01*
X152169405Y-87041009D02*
X152121786Y-87136247D01*
X150308333Y-100989580D02*
X150260714Y-101037200D01*
X150260714Y-101037200D02*
X150117857Y-101084819D01*
X150117857Y-101084819D02*
X150022619Y-101084819D01*
X150022619Y-101084819D02*
X149879762Y-101037200D01*
X149879762Y-101037200D02*
X149784524Y-100941961D01*
X149784524Y-100941961D02*
X149736905Y-100846723D01*
X149736905Y-100846723D02*
X149689286Y-100656247D01*
X149689286Y-100656247D02*
X149689286Y-100513390D01*
X149689286Y-100513390D02*
X149736905Y-100322914D01*
X149736905Y-100322914D02*
X149784524Y-100227676D01*
X149784524Y-100227676D02*
X149879762Y-100132438D01*
X149879762Y-100132438D02*
X150022619Y-100084819D01*
X150022619Y-100084819D02*
X150117857Y-100084819D01*
X150117857Y-100084819D02*
X150260714Y-100132438D01*
X150260714Y-100132438D02*
X150308333Y-100180057D01*
X150689286Y-100180057D02*
X150736905Y-100132438D01*
X150736905Y-100132438D02*
X150832143Y-100084819D01*
X150832143Y-100084819D02*
X151070238Y-100084819D01*
X151070238Y-100084819D02*
X151165476Y-100132438D01*
X151165476Y-100132438D02*
X151213095Y-100180057D01*
X151213095Y-100180057D02*
X151260714Y-100275295D01*
X151260714Y-100275295D02*
X151260714Y-100370533D01*
X151260714Y-100370533D02*
X151213095Y-100513390D01*
X151213095Y-100513390D02*
X150641667Y-101084819D01*
X150641667Y-101084819D02*
X151260714Y-101084819D01*
D10*
X130604809Y-86905714D02*
X130104809Y-86905714D01*
X130104809Y-86905714D02*
X130104809Y-86715238D01*
X130104809Y-86715238D02*
X130128619Y-86667619D01*
X130128619Y-86667619D02*
X130152428Y-86643809D01*
X130152428Y-86643809D02*
X130200047Y-86620000D01*
X130200047Y-86620000D02*
X130271476Y-86620000D01*
X130271476Y-86620000D02*
X130319095Y-86643809D01*
X130319095Y-86643809D02*
X130342904Y-86667619D01*
X130342904Y-86667619D02*
X130366714Y-86715238D01*
X130366714Y-86715238D02*
X130366714Y-86905714D01*
X130342904Y-86405714D02*
X130342904Y-86239047D01*
X130604809Y-86167619D02*
X130604809Y-86405714D01*
X130604809Y-86405714D02*
X130104809Y-86405714D01*
X130104809Y-86405714D02*
X130104809Y-86167619D01*
X130461952Y-85977142D02*
X130461952Y-85739047D01*
X130604809Y-86024761D02*
X130104809Y-85858095D01*
X130104809Y-85858095D02*
X130604809Y-85691428D01*
X130604809Y-85524762D02*
X130104809Y-85524762D01*
X130604809Y-85239048D02*
X130319095Y-85453333D01*
X130104809Y-85239048D02*
X130390523Y-85524762D01*
X130604809Y-84643810D02*
X130104809Y-84643810D01*
X130104809Y-84643810D02*
X130461952Y-84477143D01*
X130461952Y-84477143D02*
X130104809Y-84310477D01*
X130104809Y-84310477D02*
X130604809Y-84310477D01*
X130104809Y-83977143D02*
X130104809Y-83881905D01*
X130104809Y-83881905D02*
X130128619Y-83834286D01*
X130128619Y-83834286D02*
X130176238Y-83786667D01*
X130176238Y-83786667D02*
X130271476Y-83762857D01*
X130271476Y-83762857D02*
X130438142Y-83762857D01*
X130438142Y-83762857D02*
X130533380Y-83786667D01*
X130533380Y-83786667D02*
X130581000Y-83834286D01*
X130581000Y-83834286D02*
X130604809Y-83881905D01*
X130604809Y-83881905D02*
X130604809Y-83977143D01*
X130604809Y-83977143D02*
X130581000Y-84024762D01*
X130581000Y-84024762D02*
X130533380Y-84072381D01*
X130533380Y-84072381D02*
X130438142Y-84096190D01*
X130438142Y-84096190D02*
X130271476Y-84096190D01*
X130271476Y-84096190D02*
X130176238Y-84072381D01*
X130176238Y-84072381D02*
X130128619Y-84024762D01*
X130128619Y-84024762D02*
X130104809Y-83977143D01*
X130604809Y-83548571D02*
X130104809Y-83548571D01*
X130104809Y-83548571D02*
X130104809Y-83429523D01*
X130104809Y-83429523D02*
X130128619Y-83358095D01*
X130128619Y-83358095D02*
X130176238Y-83310476D01*
X130176238Y-83310476D02*
X130223857Y-83286666D01*
X130223857Y-83286666D02*
X130319095Y-83262857D01*
X130319095Y-83262857D02*
X130390523Y-83262857D01*
X130390523Y-83262857D02*
X130485761Y-83286666D01*
X130485761Y-83286666D02*
X130533380Y-83310476D01*
X130533380Y-83310476D02*
X130581000Y-83358095D01*
X130581000Y-83358095D02*
X130604809Y-83429523D01*
X130604809Y-83429523D02*
X130604809Y-83548571D01*
X130342904Y-83048571D02*
X130342904Y-82881904D01*
X130604809Y-82810476D02*
X130604809Y-83048571D01*
X130604809Y-83048571D02*
X130104809Y-83048571D01*
X130104809Y-83048571D02*
X130104809Y-82810476D01*
D12*
X182794819Y-90186666D02*
X182318628Y-90519999D01*
X182794819Y-90758094D02*
X181794819Y-90758094D01*
X181794819Y-90758094D02*
X181794819Y-90377142D01*
X181794819Y-90377142D02*
X181842438Y-90281904D01*
X181842438Y-90281904D02*
X181890057Y-90234285D01*
X181890057Y-90234285D02*
X181985295Y-90186666D01*
X181985295Y-90186666D02*
X182128152Y-90186666D01*
X182128152Y-90186666D02*
X182223390Y-90234285D01*
X182223390Y-90234285D02*
X182271009Y-90281904D01*
X182271009Y-90281904D02*
X182318628Y-90377142D01*
X182318628Y-90377142D02*
X182318628Y-90758094D01*
X182223390Y-89615237D02*
X182175771Y-89710475D01*
X182175771Y-89710475D02*
X182128152Y-89758094D01*
X182128152Y-89758094D02*
X182032914Y-89805713D01*
X182032914Y-89805713D02*
X181985295Y-89805713D01*
X181985295Y-89805713D02*
X181890057Y-89758094D01*
X181890057Y-89758094D02*
X181842438Y-89710475D01*
X181842438Y-89710475D02*
X181794819Y-89615237D01*
X181794819Y-89615237D02*
X181794819Y-89424761D01*
X181794819Y-89424761D02*
X181842438Y-89329523D01*
X181842438Y-89329523D02*
X181890057Y-89281904D01*
X181890057Y-89281904D02*
X181985295Y-89234285D01*
X181985295Y-89234285D02*
X182032914Y-89234285D01*
X182032914Y-89234285D02*
X182128152Y-89281904D01*
X182128152Y-89281904D02*
X182175771Y-89329523D01*
X182175771Y-89329523D02*
X182223390Y-89424761D01*
X182223390Y-89424761D02*
X182223390Y-89615237D01*
X182223390Y-89615237D02*
X182271009Y-89710475D01*
X182271009Y-89710475D02*
X182318628Y-89758094D01*
X182318628Y-89758094D02*
X182413866Y-89805713D01*
X182413866Y-89805713D02*
X182604342Y-89805713D01*
X182604342Y-89805713D02*
X182699580Y-89758094D01*
X182699580Y-89758094D02*
X182747200Y-89710475D01*
X182747200Y-89710475D02*
X182794819Y-89615237D01*
X182794819Y-89615237D02*
X182794819Y-89424761D01*
X182794819Y-89424761D02*
X182747200Y-89329523D01*
X182747200Y-89329523D02*
X182699580Y-89281904D01*
X182699580Y-89281904D02*
X182604342Y-89234285D01*
X182604342Y-89234285D02*
X182413866Y-89234285D01*
X182413866Y-89234285D02*
X182318628Y-89281904D01*
X182318628Y-89281904D02*
X182271009Y-89329523D01*
X182271009Y-89329523D02*
X182223390Y-89424761D01*
X189294819Y-90146666D02*
X188818628Y-90479999D01*
X189294819Y-90718094D02*
X188294819Y-90718094D01*
X188294819Y-90718094D02*
X188294819Y-90337142D01*
X188294819Y-90337142D02*
X188342438Y-90241904D01*
X188342438Y-90241904D02*
X188390057Y-90194285D01*
X188390057Y-90194285D02*
X188485295Y-90146666D01*
X188485295Y-90146666D02*
X188628152Y-90146666D01*
X188628152Y-90146666D02*
X188723390Y-90194285D01*
X188723390Y-90194285D02*
X188771009Y-90241904D01*
X188771009Y-90241904D02*
X188818628Y-90337142D01*
X188818628Y-90337142D02*
X188818628Y-90718094D01*
X189294819Y-89670475D02*
X189294819Y-89479999D01*
X189294819Y-89479999D02*
X189247200Y-89384761D01*
X189247200Y-89384761D02*
X189199580Y-89337142D01*
X189199580Y-89337142D02*
X189056723Y-89241904D01*
X189056723Y-89241904D02*
X188866247Y-89194285D01*
X188866247Y-89194285D02*
X188485295Y-89194285D01*
X188485295Y-89194285D02*
X188390057Y-89241904D01*
X188390057Y-89241904D02*
X188342438Y-89289523D01*
X188342438Y-89289523D02*
X188294819Y-89384761D01*
X188294819Y-89384761D02*
X188294819Y-89575237D01*
X188294819Y-89575237D02*
X188342438Y-89670475D01*
X188342438Y-89670475D02*
X188390057Y-89718094D01*
X188390057Y-89718094D02*
X188485295Y-89765713D01*
X188485295Y-89765713D02*
X188723390Y-89765713D01*
X188723390Y-89765713D02*
X188818628Y-89718094D01*
X188818628Y-89718094D02*
X188866247Y-89670475D01*
X188866247Y-89670475D02*
X188913866Y-89575237D01*
X188913866Y-89575237D02*
X188913866Y-89384761D01*
X188913866Y-89384761D02*
X188866247Y-89289523D01*
X188866247Y-89289523D02*
X188818628Y-89241904D01*
X188818628Y-89241904D02*
X188723390Y-89194285D01*
X188740833Y-97564819D02*
X188407500Y-97088628D01*
X188169405Y-97564819D02*
X188169405Y-96564819D01*
X188169405Y-96564819D02*
X188550357Y-96564819D01*
X188550357Y-96564819D02*
X188645595Y-96612438D01*
X188645595Y-96612438D02*
X188693214Y-96660057D01*
X188693214Y-96660057D02*
X188740833Y-96755295D01*
X188740833Y-96755295D02*
X188740833Y-96898152D01*
X188740833Y-96898152D02*
X188693214Y-96993390D01*
X188693214Y-96993390D02*
X188645595Y-97041009D01*
X188645595Y-97041009D02*
X188550357Y-97088628D01*
X188550357Y-97088628D02*
X188169405Y-97088628D01*
X189121786Y-96660057D02*
X189169405Y-96612438D01*
X189169405Y-96612438D02*
X189264643Y-96564819D01*
X189264643Y-96564819D02*
X189502738Y-96564819D01*
X189502738Y-96564819D02*
X189597976Y-96612438D01*
X189597976Y-96612438D02*
X189645595Y-96660057D01*
X189645595Y-96660057D02*
X189693214Y-96755295D01*
X189693214Y-96755295D02*
X189693214Y-96850533D01*
X189693214Y-96850533D02*
X189645595Y-96993390D01*
X189645595Y-96993390D02*
X189074167Y-97564819D01*
X189074167Y-97564819D02*
X189693214Y-97564819D01*
X162960833Y-98444819D02*
X162627500Y-97968628D01*
X162389405Y-98444819D02*
X162389405Y-97444819D01*
X162389405Y-97444819D02*
X162770357Y-97444819D01*
X162770357Y-97444819D02*
X162865595Y-97492438D01*
X162865595Y-97492438D02*
X162913214Y-97540057D01*
X162913214Y-97540057D02*
X162960833Y-97635295D01*
X162960833Y-97635295D02*
X162960833Y-97778152D01*
X162960833Y-97778152D02*
X162913214Y-97873390D01*
X162913214Y-97873390D02*
X162865595Y-97921009D01*
X162865595Y-97921009D02*
X162770357Y-97968628D01*
X162770357Y-97968628D02*
X162389405Y-97968628D01*
X163294167Y-97444819D02*
X163960833Y-97444819D01*
X163960833Y-97444819D02*
X163532262Y-98444819D01*
D13*
%TO.C,BAR MODE*%
X119605000Y-82840000D02*
X119605000Y-84940000D01*
X119605000Y-87540000D02*
X119605000Y-88050000D01*
X119605000Y-88050000D02*
X120125000Y-88050000D01*
X120125000Y-84710000D02*
X120125000Y-84940000D01*
X120125000Y-84710000D02*
X120665000Y-84710000D01*
X120125000Y-87540000D02*
X120125000Y-88050000D01*
X121765000Y-84710000D02*
X125165000Y-84710000D01*
X126265000Y-84710000D02*
X126805000Y-84710000D01*
X126805000Y-84710000D02*
X126805000Y-84940000D01*
X126805000Y-87540000D02*
X126805000Y-88050000D01*
X126805000Y-88050000D02*
X127325000Y-88050000D01*
X127325000Y-82840000D02*
X127325000Y-84940000D01*
X127325000Y-87540000D02*
X127325000Y-88050000D01*
D14*
%TO.C,JACK1*%
X191895000Y-94960000D02*
X203595000Y-94960000D01*
X191895000Y-100960000D02*
X191895000Y-94960000D01*
X203595000Y-94960000D02*
X203595000Y-95460000D01*
X203595000Y-100460000D02*
X203595000Y-100960000D01*
X203595000Y-100460000D02*
X206295000Y-100460000D01*
X203595000Y-100960000D02*
X191895000Y-100960000D01*
X206008000Y-95928000D02*
X206262000Y-95928000D01*
X206008000Y-96055000D02*
X206008000Y-95928000D01*
X206008000Y-99865000D02*
X206008000Y-96055000D01*
X206008000Y-99865000D02*
X206008000Y-99992000D01*
X206008000Y-99992000D02*
X206262000Y-99992000D01*
X206135000Y-95928000D02*
X206135000Y-99992000D01*
X206262000Y-95928000D02*
X206262000Y-99992000D01*
X206295000Y-95460000D02*
X203595000Y-95460000D01*
X206295000Y-100460000D02*
X206295000Y-95460000D01*
D13*
%TO.C,R5*%
X157760000Y-88774564D02*
X157760000Y-88320436D01*
X159230000Y-88774564D02*
X159230000Y-88320436D01*
%TO.C,R3*%
X157760000Y-92145436D02*
X157760000Y-92599564D01*
X159230000Y-92145436D02*
X159230000Y-92599564D01*
%TO.C,RV1*%
X140069000Y-90259000D02*
X140069000Y-91354000D01*
X140069000Y-90259000D02*
X145110000Y-90259000D01*
X140069000Y-94206000D02*
X140069000Y-96355000D01*
X140069000Y-94206000D02*
X140069000Y-96355000D01*
X140069000Y-99205000D02*
X140069000Y-100300000D01*
X140069000Y-100300000D02*
X145110000Y-100300000D01*
X141427000Y-93660000D02*
X145110000Y-93660000D01*
X141427000Y-96900000D02*
X145110000Y-96900000D01*
X145110000Y-90259000D02*
X145110000Y-94208000D01*
X145110000Y-93660000D02*
X145110000Y-94208000D01*
X145110000Y-96353000D02*
X145110000Y-96900000D01*
X145110000Y-96353000D02*
X145110000Y-100300000D01*
%TO.C,R4*%
X150504564Y-94955000D02*
X150050436Y-94955000D01*
X150504564Y-96425000D02*
X150050436Y-96425000D01*
%TO.C,R1*%
X189134564Y-99725000D02*
X188680436Y-99725000D01*
X189134564Y-101195000D02*
X188680436Y-101195000D01*
%TO.C,C1*%
X163206252Y-90725000D02*
X162683748Y-90725000D01*
X163206252Y-92195000D02*
X162683748Y-92195000D01*
%TO.C,U1*%
X166375000Y-85330000D02*
X166375000Y-109460000D01*
X166375000Y-85330000D02*
X168915000Y-82790000D01*
X166375000Y-110730000D02*
X166375000Y-109460000D01*
X166375000Y-110730000D02*
X168915000Y-113270000D01*
X168915000Y-82790000D02*
X203205000Y-82790000D01*
X168915000Y-113270000D02*
X198125000Y-113270000D01*
X198125000Y-110730000D02*
X203205000Y-110730000D01*
X198125000Y-113270000D02*
X198125000Y-110730000D01*
X200665000Y-92950000D02*
X203205000Y-92950000D01*
X200665000Y-103110000D02*
X200665000Y-92950000D01*
X203205000Y-103110000D02*
X200665000Y-103110000D01*
X203205000Y-110730000D02*
X203205000Y-82790000D01*
D15*
X201935000Y-112000000D02*
X199395000Y-112000000D01*
X199395000Y-110730000D01*
X201935000Y-110730000D01*
X201935000Y-112000000D01*
G36*
X201935000Y-112000000D02*
G01*
X199395000Y-112000000D01*
X199395000Y-110730000D01*
X201935000Y-110730000D01*
X201935000Y-112000000D01*
G37*
D13*
%TO.C,U2*%
X152120000Y-88265000D02*
X150170000Y-88265000D01*
X152120000Y-88265000D02*
X154070000Y-88265000D01*
X152120000Y-93385000D02*
X150170000Y-93385000D01*
X152120000Y-93385000D02*
X154070000Y-93385000D01*
X155060000Y-93620000D02*
X154580000Y-93620000D01*
X154820000Y-93290000D01*
X155060000Y-93620000D01*
G36*
X155060000Y-93620000D02*
G01*
X154580000Y-93620000D01*
X154820000Y-93290000D01*
X155060000Y-93620000D01*
G37*
%TO.C,R6*%
X152134564Y-84725000D02*
X151680436Y-84725000D01*
X152134564Y-86195000D02*
X151680436Y-86195000D01*
%TO.C,C2*%
X158675000Y-100770000D02*
G75*
G02*
X152135000Y-100770000I-3270000J0D01*
G01*
X152135000Y-100770000D02*
G75*
G02*
X158675000Y-100770000I3270000J0D01*
G01*
%TO.C,PEAK MODE*%
X132360000Y-82880000D02*
X132360000Y-84980000D01*
X132360000Y-87580000D02*
X132360000Y-88090000D01*
X132360000Y-88090000D02*
X132880000Y-88090000D01*
X132880000Y-84750000D02*
X132880000Y-84980000D01*
X132880000Y-84750000D02*
X133420000Y-84750000D01*
X132880000Y-87580000D02*
X132880000Y-88090000D01*
X134520000Y-84750000D02*
X137920000Y-84750000D01*
X139020000Y-84750000D02*
X139560000Y-84750000D01*
X139560000Y-84750000D02*
X139560000Y-84980000D01*
X139560000Y-87580000D02*
X139560000Y-88090000D01*
X139560000Y-88090000D02*
X140080000Y-88090000D01*
X140080000Y-82880000D02*
X140080000Y-84980000D01*
X140080000Y-87580000D02*
X140080000Y-88090000D01*
%TO.C,R8*%
X183395000Y-89815436D02*
X183395000Y-90269564D01*
X184865000Y-89815436D02*
X184865000Y-90269564D01*
%TO.C,R9*%
X186065000Y-89785436D02*
X186065000Y-90239564D01*
X187535000Y-89785436D02*
X187535000Y-90239564D01*
%TO.C,R2*%
X189134564Y-94725000D02*
X188680436Y-94725000D01*
X189134564Y-96195000D02*
X188680436Y-96195000D01*
%TO.C,R7*%
X162900436Y-98905000D02*
X163354564Y-98905000D01*
X162900436Y-100375000D02*
X163354564Y-100375000D01*
%TD*%
D16*
%TO.C,JACK1*%
X201495000Y-97960000D03*
X195495000Y-97960000D03*
D17*
X199495000Y-100360000D03*
X201495000Y-95560000D03*
X194495000Y-95560000D03*
%TD*%
M02*
