%TF.GenerationSoftware,KiCad,Pcbnew,8.0.7*%
%TF.CreationDate,2025-01-11T10:05:48+01:00*%
%TF.ProjectId,ESP32_Audio_Spectrum_SSD1322,45535033-325f-4417-9564-696f5f537065,rev?*%
%TF.SameCoordinates,Original*%
%TF.FileFunction,Copper,L1,Top*%
%TF.FilePolarity,Positive*%
%FSLAX46Y46*%
G04 Gerber Fmt 4.6, Leading zero omitted, Abs format (unit mm)*
G04 Created by KiCad (PCBNEW 8.0.7) date 2025-01-11 10:05:48*
%MOMM*%
%LPD*%
G01*
G04 APERTURE LIST*
G04 Aperture macros list*
%AMRoundRect*
0 Rectangle with rounded corners*
0 $1 Rounding radius*
0 $2 $3 $4 $5 $6 $7 $8 $9 X,Y pos of 4 corners*
0 Add a 4 corners polygon primitive as box body*
4,1,4,$2,$3,$4,$5,$6,$7,$8,$9,$2,$3,0*
0 Add four circle primitives for the rounded corners*
1,1,$1+$1,$2,$3*
1,1,$1+$1,$4,$5*
1,1,$1+$1,$6,$7*
1,1,$1+$1,$8,$9*
0 Add four rect primitives between the rounded corners*
20,1,$1+$1,$2,$3,$4,$5,0*
20,1,$1+$1,$4,$5,$6,$7,0*
20,1,$1+$1,$6,$7,$8,$9,0*
20,1,$1+$1,$8,$9,$2,$3,0*%
G04 Aperture macros list end*
%TA.AperFunction,ComponentPad*%
%ADD10C,2.100000*%
%TD*%
%TA.AperFunction,ComponentPad*%
%ADD11C,1.750000*%
%TD*%
%TA.AperFunction,ComponentPad*%
%ADD12C,1.200000*%
%TD*%
%TA.AperFunction,ComponentPad*%
%ADD13C,1.600000*%
%TD*%
%TA.AperFunction,SMDPad,CuDef*%
%ADD14RoundRect,0.250000X0.450000X-0.262500X0.450000X0.262500X-0.450000X0.262500X-0.450000X-0.262500X0*%
%TD*%
%TA.AperFunction,SMDPad,CuDef*%
%ADD15RoundRect,0.250000X-0.450000X0.262500X-0.450000X-0.262500X0.450000X-0.262500X0.450000X0.262500X0*%
%TD*%
%TA.AperFunction,ComponentPad*%
%ADD16C,2.340000*%
%TD*%
%TA.AperFunction,SMDPad,CuDef*%
%ADD17RoundRect,0.250000X0.262500X0.450000X-0.262500X0.450000X-0.262500X-0.450000X0.262500X-0.450000X0*%
%TD*%
%TA.AperFunction,SMDPad,CuDef*%
%ADD18RoundRect,0.250000X0.250000X0.475000X-0.250000X0.475000X-0.250000X-0.475000X0.250000X-0.475000X0*%
%TD*%
%TA.AperFunction,ComponentPad*%
%ADD19C,1.400000*%
%TD*%
%TA.AperFunction,SMDPad,CuDef*%
%ADD20RoundRect,0.150000X0.675000X0.150000X-0.675000X0.150000X-0.675000X-0.150000X0.675000X-0.150000X0*%
%TD*%
%TA.AperFunction,SMDPad,CuDef*%
%ADD21RoundRect,0.250000X-0.262500X-0.450000X0.262500X-0.450000X0.262500X0.450000X-0.262500X0.450000X0*%
%TD*%
%TA.AperFunction,ComponentPad*%
%ADD22R,1.700000X1.700000*%
%TD*%
%TA.AperFunction,ComponentPad*%
%ADD23O,1.700000X1.700000*%
%TD*%
%TA.AperFunction,ViaPad*%
%ADD24C,4.000000*%
%TD*%
%TA.AperFunction,ViaPad*%
%ADD25C,0.600000*%
%TD*%
%TA.AperFunction,Conductor*%
%ADD26C,0.200000*%
%TD*%
G04 APERTURE END LIST*
D10*
%TO.P,BAR MODE,*%
%TO.N,*%
X119965000Y-86230000D03*
X126975000Y-86230000D03*
D11*
%TO.P,BAR MODE,1,1*%
%TO.N,GNDREF*%
X121215000Y-83740000D03*
%TO.P,BAR MODE,2,2*%
%TO.N,BAR_MODE*%
X125715000Y-83740000D03*
%TD*%
D12*
%TO.P,JACK1,*%
%TO.N,*%
X201495000Y-97960000D03*
X195495000Y-97960000D03*
D13*
%TO.P,JACK1,2*%
%TO.N,Net-(JACK1-Pad2)*%
X199495000Y-100360000D03*
%TO.P,JACK1,3*%
%TO.N,GNDREF*%
X201495000Y-95560000D03*
%TO.P,JACK1,4*%
%TO.N,Net-(JACK1-Pad4)*%
X194495000Y-95560000D03*
%TD*%
D14*
%TO.P,R5,1*%
%TO.N,Net-(U2A-+)*%
X158495000Y-89460000D03*
%TO.P,R5,2*%
%TO.N,GNDREF*%
X158495000Y-87635000D03*
%TD*%
D15*
%TO.P,R3,1*%
%TO.N,Net-(U2A--)*%
X158495000Y-91460000D03*
%TO.P,R3,2*%
%TO.N,Net-(R3-Pad2)*%
X158495000Y-93285000D03*
%TD*%
D16*
%TO.P,RV1,1,1*%
%TO.N,GNDREF*%
X140190000Y-92780000D03*
%TO.P,RV1,2,2*%
%TO.N,SVP*%
X143990000Y-95280000D03*
%TO.P,RV1,3,3*%
%TO.N,Net-(R4-Pad2)*%
X140190000Y-97780000D03*
%TD*%
D17*
%TO.P,R4,1*%
%TO.N,Net-(R3-Pad2)*%
X151190000Y-95690000D03*
%TO.P,R4,2*%
%TO.N,Net-(R4-Pad2)*%
X149365000Y-95690000D03*
%TD*%
%TO.P,R1,1*%
%TO.N,Net-(JACK1-Pad2)*%
X189820000Y-100460000D03*
%TO.P,R1,2*%
%TO.N,Net-(C1-Pad1)*%
X187995000Y-100460000D03*
%TD*%
D18*
%TO.P,C1,1*%
%TO.N,Net-(C1-Pad1)*%
X163895000Y-91460000D03*
%TO.P,C1,2*%
%TO.N,Net-(U2A--)*%
X161995000Y-91460000D03*
%TD*%
D19*
%TO.P,U1,1,GND*%
%TO.N,GNDREF*%
X173995000Y-112000000D03*
%TO.P,U1,2,RST*%
%TO.N,unconnected-(U1-RST-Pad2)*%
X173995000Y-109460000D03*
%TO.P,U1,3,NC*%
%TO.N,unconnected-(U1-NC-Pad3)*%
X176535000Y-112000000D03*
%TO.P,U1,4,IO_36/SVP/A0*%
%TO.N,SVP*%
X176535000Y-109460000D03*
%TO.P,U1,5,IO_39/SVN*%
%TO.N,unconnected-(U1-IO_39{slash}SVN-Pad5)*%
X179075000Y-112000000D03*
%TO.P,U1,6,IO_26/D0*%
%TO.N,unconnected-(U1-IO_26{slash}D0-Pad6)*%
X179075000Y-109460000D03*
%TO.P,U1,7,IO_35*%
%TO.N,unconnected-(U1-IO_35-Pad7)*%
X181615000Y-112000000D03*
%TO.P,U1,8,IO_18/D5*%
%TO.N,SCLK*%
X181615000Y-109460000D03*
%TO.P,U1,9,IO_33*%
%TO.N,unconnected-(U1-IO_33-Pad9)*%
X184155000Y-112000000D03*
%TO.P,U1,10,IO_19/D6*%
%TO.N,RST*%
X184155000Y-109460000D03*
%TO.P,U1,11,IO_34*%
%TO.N,unconnected-(U1-IO_34-Pad11)*%
X186695000Y-112000000D03*
%TO.P,U1,12,IO_23/D7*%
%TO.N,MOSI*%
X186695000Y-109460000D03*
%TO.P,U1,13,IO_14/TMS*%
%TO.N,unconnected-(U1-IO_14{slash}TMS-Pad13)*%
X189235000Y-112000000D03*
%TO.P,U1,14,IO_05/D8*%
%TO.N,DC*%
X189235000Y-109460000D03*
%TO.P,U1,15,NC*%
%TO.N,unconnected-(U1-NC-Pad15)*%
X191775000Y-112000000D03*
%TO.P,U1,16,3V3*%
%TO.N,3.3V*%
X191775000Y-109460000D03*
%TO.P,U1,17,IO_09/SD2*%
%TO.N,unconnected-(U1-IO_09{slash}SD2-Pad17)*%
X194315000Y-112000000D03*
%TO.P,U1,18,IO_13/TCK*%
%TO.N,unconnected-(U1-IO_13{slash}TCK-Pad18)*%
X194315000Y-109460000D03*
%TO.P,U1,19,CMD*%
%TO.N,unconnected-(U1-CMD-Pad19)*%
X196855000Y-112000000D03*
%TO.P,U1,20,IO_10/SD3*%
%TO.N,unconnected-(U1-IO_10{slash}SD3-Pad20)*%
X196855000Y-109460000D03*
%TO.P,U1,21,TXD*%
%TO.N,unconnected-(U1-TXD-Pad21)*%
X173995000Y-86600000D03*
%TO.P,U1,22,GND*%
%TO.N,GNDREF*%
X173995000Y-84060000D03*
%TO.P,U1,23,RXD*%
%TO.N,unconnected-(U1-RXD-Pad23)*%
X176535000Y-86600000D03*
%TO.P,U1,24,IO_27*%
%TO.N,unconnected-(U1-IO_27-Pad24)*%
X176535000Y-84060000D03*
%TO.P,U1,25,IO_22/D1/SCL*%
%TO.N,unconnected-(U1-IO_22{slash}D1{slash}SCL-Pad25)*%
X179075000Y-86600000D03*
%TO.P,U1,26,IO_25*%
%TO.N,unconnected-(U1-IO_25-Pad26)*%
X179075000Y-84060000D03*
%TO.P,U1,27,IO_21/D2/SDA*%
%TO.N,unconnected-(U1-IO_21{slash}D2{slash}SDA-Pad27)*%
X181615000Y-86600000D03*
%TO.P,U1,28,IO_32*%
%TO.N,unconnected-(U1-IO_32-Pad28)*%
X181615000Y-84060000D03*
%TO.P,U1,29,IO_17/D3*%
%TO.N,BAR_MODE*%
X184155000Y-86600000D03*
%TO.P,U1,30,IO_12/TDI*%
%TO.N,unconnected-(U1-IO_12{slash}TDI-Pad30)*%
X184155000Y-84060000D03*
%TO.P,U1,31,IO_16/D4*%
%TO.N,PEAK_MODE*%
X186695000Y-86600000D03*
%TO.P,U1,32,IO_04*%
%TO.N,unconnected-(U1-IO_04-Pad32)*%
X186695000Y-84060000D03*
%TO.P,U1,33,GND*%
%TO.N,GNDREF*%
X189235000Y-86600000D03*
%TO.P,U1,34,IO_00*%
%TO.N,CS*%
X189235000Y-84060000D03*
%TO.P,U1,35,VCC_(USB)*%
%TO.N,VCC*%
X191775000Y-86600000D03*
%TO.P,U1,36,IO_02*%
%TO.N,unconnected-(U1-IO_02-Pad36)*%
X191775000Y-84060000D03*
%TO.P,U1,37,TD0*%
%TO.N,unconnected-(U1-TD0-Pad37)*%
X194315000Y-86600000D03*
%TO.P,U1,38,SD1*%
%TO.N,unconnected-(U1-SD1-Pad38)*%
X194315000Y-84060000D03*
%TO.P,U1,39,SD0*%
%TO.N,unconnected-(U1-SD0-Pad39)*%
X196855000Y-86600000D03*
%TO.P,U1,40,CLK*%
%TO.N,unconnected-(U1-CLK-Pad40)*%
X196855000Y-84060000D03*
%TD*%
D20*
%TO.P,U2,1*%
%TO.N,Net-(R3-Pad2)*%
X154745000Y-92730000D03*
%TO.P,U2,2,-*%
%TO.N,Net-(U2A--)*%
X154745000Y-91460000D03*
%TO.P,U2,3,+*%
%TO.N,Net-(U2A-+)*%
X154745000Y-90190000D03*
%TO.P,U2,4,V-*%
%TO.N,GNDREF*%
X154745000Y-88920000D03*
%TO.P,U2,5,+*%
%TO.N,unconnected-(U2B-+-Pad5)*%
X149495000Y-88920000D03*
%TO.P,U2,6,-*%
%TO.N,unconnected-(U2B---Pad6)*%
X149495000Y-90190000D03*
%TO.P,U2,7*%
%TO.N,unconnected-(U2-Pad7)*%
X149495000Y-91460000D03*
%TO.P,U2,8,V+*%
%TO.N,VCC*%
X149495000Y-92730000D03*
%TD*%
D17*
%TO.P,R6,1*%
%TO.N,Net-(U2A-+)*%
X152820000Y-85460000D03*
%TO.P,R6,2*%
%TO.N,VCC*%
X150995000Y-85460000D03*
%TD*%
D13*
%TO.P,C2,1*%
%TO.N,VCC*%
X154155000Y-100770000D03*
%TO.P,C2,2*%
%TO.N,GNDREF*%
X156655000Y-100770000D03*
%TD*%
D10*
%TO.P,PEAK MODE,*%
%TO.N,*%
X132720000Y-86270000D03*
X139730000Y-86270000D03*
D11*
%TO.P,PEAK MODE,1,1*%
%TO.N,GNDREF*%
X133970000Y-83780000D03*
%TO.P,PEAK MODE,2,2*%
%TO.N,PEAK_MODE*%
X138470000Y-83780000D03*
%TD*%
D15*
%TO.P,R8,1*%
%TO.N,BAR_MODE*%
X184130000Y-89130000D03*
%TO.P,R8,2*%
%TO.N,3.3V*%
X184130000Y-90955000D03*
%TD*%
%TO.P,R9,1*%
%TO.N,PEAK_MODE*%
X186800000Y-89100000D03*
%TO.P,R9,2*%
%TO.N,3.3V*%
X186800000Y-90925000D03*
%TD*%
D17*
%TO.P,R2,1*%
%TO.N,Net-(JACK1-Pad4)*%
X189820000Y-95460000D03*
%TO.P,R2,2*%
%TO.N,Net-(C1-Pad1)*%
X187995000Y-95460000D03*
%TD*%
D21*
%TO.P,R7,1*%
%TO.N,GNDREF*%
X162215000Y-99640000D03*
%TO.P,R7,2*%
%TO.N,SVP*%
X164040000Y-99640000D03*
%TD*%
D22*
%TO.P,J1,1,Pin_1*%
%TO.N,GNDREF*%
X107535000Y-107080000D03*
D23*
%TO.P,J1,2,Pin_2*%
%TO.N,3.3V*%
X104995000Y-107080000D03*
%TO.P,J1,3,Pin_3*%
%TO.N,unconnected-(J1-Pin_3-Pad3)*%
X107535000Y-104540000D03*
%TO.P,J1,4,Pin_4*%
%TO.N,SCLK*%
X104995000Y-104540000D03*
%TO.P,J1,5,Pin_5*%
%TO.N,MOSI*%
X107535000Y-102000000D03*
%TO.P,J1,6,Pin_6*%
%TO.N,unconnected-(J1-Pin_6-Pad6)*%
X104995000Y-102000000D03*
%TO.P,J1,7,Pin_7*%
%TO.N,unconnected-(J1-Pin_7-Pad7)*%
X107535000Y-99460000D03*
%TO.P,J1,8,Pin_8*%
%TO.N,unconnected-(J1-Pin_8-Pad8)*%
X104995000Y-99460000D03*
%TO.P,J1,9,Pin_9*%
%TO.N,unconnected-(J1-Pin_9-Pad9)*%
X107535000Y-96920000D03*
%TO.P,J1,10,Pin_10*%
%TO.N,unconnected-(J1-Pin_10-Pad10)*%
X104995000Y-96920000D03*
%TO.P,J1,11,Pin_11*%
%TO.N,unconnected-(J1-Pin_11-Pad11)*%
X107535000Y-94380000D03*
%TO.P,J1,12,Pin_12*%
%TO.N,unconnected-(J1-Pin_12-Pad12)*%
X104995000Y-94380000D03*
%TO.P,J1,13,Pin_13*%
%TO.N,unconnected-(J1-Pin_13-Pad13)*%
X107535000Y-91840000D03*
%TO.P,J1,14,Pin_14*%
%TO.N,DC*%
X104995000Y-91840000D03*
%TO.P,J1,15,Pin_15*%
%TO.N,RST*%
X107535000Y-89300000D03*
%TO.P,J1,16,Pin_16*%
%TO.N,CS*%
X104995000Y-89300000D03*
%TD*%
D24*
%TO.N,GNDREF*%
X201610000Y-84420000D03*
X105880000Y-84090000D03*
X201600000Y-112010000D03*
X105820000Y-112190000D03*
D25*
X157025000Y-87635000D03*
%TO.N,3.3V*%
X169735000Y-107160000D03*
%TO.N,CS*%
X179825000Y-96860000D03*
%TO.N,DC*%
X175215000Y-103340000D03*
%TO.N,SVP*%
X164205000Y-102050000D03*
%TD*%
D26*
%TO.N,Net-(U2A--)*%
X161995000Y-91460000D02*
X158495000Y-91460000D01*
X154745000Y-91460000D02*
X158495000Y-91460000D01*
%TO.N,Net-(C1-Pad1)*%
X168405000Y-91460000D02*
X163895000Y-91460000D01*
X172575000Y-95460000D02*
X168565000Y-91450000D01*
X187995000Y-95460000D02*
X172575000Y-95460000D01*
X168565000Y-91450000D02*
X168415000Y-91450000D01*
X168415000Y-91450000D02*
X168405000Y-91460000D01*
X187995000Y-100460000D02*
X187995000Y-95460000D01*
%TO.N,VCC*%
X190755000Y-85600000D02*
X190505000Y-85350000D01*
X154155000Y-100770000D02*
X150285000Y-96900000D01*
X150995000Y-85460000D02*
X150995000Y-92054999D01*
X147185000Y-91880000D02*
X148035000Y-92730000D01*
X148035000Y-92730000D02*
X149495000Y-92730000D01*
X190505000Y-85350000D02*
X156675000Y-85350000D01*
X150285000Y-92764998D02*
X150357499Y-92692499D01*
X147185000Y-84980000D02*
X147185000Y-91880000D01*
X150319999Y-92730000D02*
X149495000Y-92730000D01*
X190775000Y-85600000D02*
X190755000Y-85600000D01*
X154565000Y-83240000D02*
X148925000Y-83240000D01*
X156675000Y-85350000D02*
X154565000Y-83240000D01*
X150995000Y-92054999D02*
X150357499Y-92692499D01*
X150357499Y-92692499D02*
X150319999Y-92730000D01*
X148925000Y-83240000D02*
X147185000Y-84980000D01*
X191775000Y-86600000D02*
X190775000Y-85600000D01*
X150285000Y-96900000D02*
X150285000Y-92764998D01*
%TO.N,GNDREF*%
X121215000Y-83740000D02*
X122035000Y-84560000D01*
X133970000Y-83780000D02*
X136480000Y-86290000D01*
X201495000Y-95560000D02*
X198195000Y-95560000D01*
X157025000Y-87635000D02*
X156030000Y-87635000D01*
X156030000Y-87635000D02*
X154745000Y-88920000D01*
X134390000Y-89270000D02*
X136605000Y-91485000D01*
X161085000Y-100770000D02*
X162215000Y-99640000D01*
X156655000Y-100770000D02*
X161085000Y-100770000D01*
X136480000Y-91360000D02*
X136605000Y-91485000D01*
X136605000Y-91485000D02*
X137900000Y-92780000D01*
X137900000Y-92780000D02*
X140190000Y-92780000D01*
X158495000Y-87635000D02*
X157025000Y-87635000D01*
X198195000Y-95560000D02*
X189235000Y-86600000D01*
X122035000Y-89270000D02*
X134390000Y-89270000D01*
X136480000Y-86290000D02*
X136480000Y-91360000D01*
X122035000Y-84560000D02*
X122035000Y-89270000D01*
%TO.N,RST*%
X184155000Y-109460000D02*
X179545000Y-104850000D01*
X179545000Y-104850000D02*
X113385000Y-104850000D01*
X108985000Y-89300000D02*
X107535000Y-89300000D01*
X110745000Y-91060000D02*
X108985000Y-89300000D01*
X110745000Y-102210000D02*
X110745000Y-91060000D01*
X113385000Y-104850000D02*
X110745000Y-102210000D01*
%TO.N,3.3V*%
X111775000Y-109050000D02*
X111685000Y-109140000D01*
X186770000Y-90955000D02*
X186800000Y-90925000D01*
X191775000Y-109460000D02*
X188950000Y-106635000D01*
X188950000Y-94000000D02*
X186800000Y-91850000D01*
X186800000Y-91850000D02*
X186800000Y-90925000D01*
X104995000Y-108210000D02*
X104995000Y-107080000D01*
X105925000Y-109140000D02*
X104995000Y-108210000D01*
X188950000Y-106635000D02*
X188950000Y-94000000D01*
X184130000Y-90955000D02*
X186770000Y-90955000D01*
X111775000Y-109010000D02*
X111775000Y-109050000D01*
X113625000Y-107160000D02*
X111775000Y-109010000D01*
X169735000Y-107160000D02*
X113625000Y-107160000D01*
X111685000Y-109140000D02*
X105925000Y-109140000D01*
%TO.N,MOSI*%
X185625000Y-110680000D02*
X186695000Y-109610000D01*
X107535000Y-102000000D02*
X109485000Y-102000000D01*
X179229214Y-105660000D02*
X182775000Y-109205786D01*
X182775000Y-110130000D02*
X183325000Y-110680000D01*
X182775000Y-109205786D02*
X182775000Y-110130000D01*
X109485000Y-102000000D02*
X113145000Y-105660000D01*
X186695000Y-109610000D02*
X186695000Y-109460000D01*
X183325000Y-110680000D02*
X185625000Y-110680000D01*
X113145000Y-105660000D02*
X179229214Y-105660000D01*
%TO.N,CS*%
X113675000Y-104130000D02*
X175665000Y-104130000D01*
X175665000Y-104130000D02*
X179875000Y-99920000D01*
X104995000Y-89300000D02*
X106145000Y-88150000D01*
X111525000Y-101980000D02*
X113675000Y-104130000D01*
X106145000Y-88150000D02*
X109115000Y-88150000D01*
X179875000Y-99920000D02*
X179875000Y-96910000D01*
X179875000Y-96910000D02*
X179825000Y-96860000D01*
X111525000Y-90560000D02*
X111525000Y-101980000D01*
X109115000Y-88150000D02*
X111525000Y-90560000D01*
%TO.N,DC*%
X103845000Y-88823654D02*
X105438654Y-87230000D01*
X150215000Y-103360000D02*
X175195000Y-103360000D01*
X114005000Y-103360000D02*
X150215000Y-103360000D01*
X112225000Y-101580000D02*
X114005000Y-103360000D01*
X105438654Y-87230000D02*
X109495000Y-87230000D01*
X104995000Y-91840000D02*
X103845000Y-90690000D01*
X109495000Y-87230000D02*
X112225000Y-89960000D01*
X112225000Y-89960000D02*
X112225000Y-90100000D01*
X150215000Y-103360000D02*
X150425000Y-103360000D01*
X150425000Y-103360000D02*
X150445000Y-103340000D01*
X112225000Y-90100000D02*
X112225000Y-101580000D01*
X175195000Y-103360000D02*
X175215000Y-103340000D01*
X103845000Y-90690000D02*
X103845000Y-88823654D01*
%TO.N,SCLK*%
X104995000Y-104540000D02*
X106145000Y-105690000D01*
X112175000Y-105690000D02*
X112875000Y-106390000D01*
X112875000Y-106390000D02*
X178545000Y-106390000D01*
X178545000Y-106390000D02*
X181615000Y-109460000D01*
X106145000Y-105690000D02*
X112175000Y-105690000D01*
%TO.N,Net-(JACK1-Pad2)*%
X199395000Y-100460000D02*
X199495000Y-100360000D01*
X189820000Y-100460000D02*
X199395000Y-100460000D01*
%TO.N,Net-(JACK1-Pad4)*%
X194495000Y-95560000D02*
X189920000Y-95560000D01*
X189920000Y-95560000D02*
X189820000Y-95460000D01*
%TO.N,Net-(R3-Pad2)*%
X155130000Y-93115000D02*
X154745000Y-92730000D01*
X155130000Y-93115000D02*
X152555000Y-95690000D01*
X155300000Y-93285000D02*
X155130000Y-93115000D01*
X158495000Y-93285000D02*
X155300000Y-93285000D01*
X152555000Y-95690000D02*
X151190000Y-95690000D01*
%TO.N,Net-(R4-Pad2)*%
X143270000Y-92710000D02*
X145360000Y-92710000D01*
X145360000Y-92710000D02*
X148340000Y-95690000D01*
X140190000Y-95790000D02*
X143270000Y-92710000D01*
X140190000Y-97780000D02*
X140190000Y-95790000D01*
X148340000Y-95690000D02*
X149365000Y-95690000D01*
%TO.N,Net-(U2A-+)*%
X154745000Y-90190000D02*
X153920001Y-90190000D01*
X157765000Y-90190000D02*
X154745000Y-90190000D01*
X153920001Y-90190000D02*
X152820000Y-89089999D01*
X152820000Y-89089999D02*
X152820000Y-85460000D01*
X158495000Y-89460000D02*
X157765000Y-90190000D01*
%TO.N,SVP*%
X164205000Y-102050000D02*
X164040000Y-101885000D01*
X161200000Y-102480000D02*
X147870000Y-102480000D01*
X147870000Y-102480000D02*
X143990000Y-98600000D01*
X164040000Y-99640000D02*
X161200000Y-102480000D01*
X143990000Y-98600000D02*
X143990000Y-95280000D01*
X164040000Y-101885000D02*
X164040000Y-99640000D01*
%TO.N,BAR_MODE*%
X184155000Y-89105000D02*
X184130000Y-89130000D01*
X184155000Y-86600000D02*
X184155000Y-89105000D01*
%TO.N,PEAK_MODE*%
X186695000Y-88995000D02*
X186800000Y-89100000D01*
X186695000Y-86600000D02*
X186695000Y-88995000D01*
%TD*%
%TA.AperFunction,Conductor*%
%TO.N,GNDREF*%
G36*
X204270639Y-81539778D02*
G01*
X204337653Y-81559534D01*
X204383350Y-81612388D01*
X204394500Y-81663777D01*
X204394500Y-111486000D01*
X204385495Y-114835833D01*
X204365630Y-114902820D01*
X204312703Y-114948432D01*
X204261495Y-114959500D01*
X148609500Y-114959500D01*
X103119365Y-114910156D01*
X103052347Y-114890399D01*
X103006650Y-114837545D01*
X102995500Y-114786156D01*
X102995500Y-107284000D01*
X102996360Y-106964035D01*
X103038049Y-91455571D01*
X103057913Y-91388590D01*
X103110840Y-91342978D01*
X103180025Y-91333220D01*
X103243502Y-91362416D01*
X103249720Y-91368220D01*
X103330564Y-91449063D01*
X103364048Y-91510384D01*
X103363456Y-91565689D01*
X103359778Y-91581006D01*
X103359778Y-91581008D01*
X103339396Y-91840000D01*
X103359778Y-92098990D01*
X103420427Y-92351610D01*
X103519843Y-92591623D01*
X103519845Y-92591627D01*
X103519846Y-92591628D01*
X103655588Y-92813140D01*
X103824311Y-93010689D01*
X103830193Y-93015712D01*
X103868383Y-93074219D01*
X103868881Y-93144087D01*
X103831526Y-93203132D01*
X103830256Y-93204232D01*
X103824311Y-93209311D01*
X103824309Y-93209313D01*
X103655588Y-93406859D01*
X103519843Y-93628376D01*
X103420427Y-93868389D01*
X103359778Y-94121009D01*
X103339396Y-94380000D01*
X103359778Y-94638990D01*
X103420427Y-94891610D01*
X103519843Y-95131623D01*
X103519845Y-95131627D01*
X103519846Y-95131628D01*
X103655588Y-95353140D01*
X103824311Y-95550689D01*
X103830193Y-95555712D01*
X103868383Y-95614219D01*
X103868881Y-95684087D01*
X103831526Y-95743132D01*
X103830256Y-95744232D01*
X103824311Y-95749311D01*
X103824309Y-95749313D01*
X103655588Y-95946859D01*
X103519843Y-96168376D01*
X103420427Y-96408389D01*
X103359778Y-96661009D01*
X103339396Y-96920000D01*
X103359778Y-97178990D01*
X103420427Y-97431610D01*
X103519843Y-97671623D01*
X103519845Y-97671627D01*
X103519846Y-97671628D01*
X103655588Y-97893140D01*
X103824311Y-98090689D01*
X103830193Y-98095712D01*
X103868383Y-98154219D01*
X103868881Y-98224087D01*
X103831526Y-98283132D01*
X103830256Y-98284232D01*
X103825900Y-98287954D01*
X103824309Y-98289313D01*
X103655588Y-98486859D01*
X103519843Y-98708376D01*
X103420427Y-98948389D01*
X103359778Y-99201009D01*
X103339396Y-99460000D01*
X103359778Y-99718990D01*
X103420427Y-99971610D01*
X103519843Y-100211623D01*
X103519845Y-100211627D01*
X103519846Y-100211628D01*
X103655588Y-100433140D01*
X103824311Y-100630689D01*
X103830193Y-100635712D01*
X103868383Y-100694219D01*
X103868881Y-100764087D01*
X103831526Y-100823132D01*
X103830256Y-100824232D01*
X103824311Y-100829311D01*
X103824309Y-100829313D01*
X103655588Y-101026859D01*
X103519843Y-101248376D01*
X103420427Y-101488389D01*
X103359778Y-101741009D01*
X103339396Y-102000000D01*
X103359778Y-102258990D01*
X103420427Y-102511610D01*
X103519843Y-102751623D01*
X103519845Y-102751627D01*
X103519846Y-102751628D01*
X103655588Y-102973140D01*
X103824311Y-103170689D01*
X103830193Y-103175712D01*
X103868383Y-103234219D01*
X103868881Y-103304087D01*
X103831526Y-103363132D01*
X103830256Y-103364232D01*
X103824311Y-103369311D01*
X103824309Y-103369313D01*
X103655588Y-103566859D01*
X103519843Y-103788376D01*
X103420427Y-104028389D01*
X103359778Y-104281009D01*
X103339396Y-104540000D01*
X103359778Y-104798990D01*
X103420427Y-105051610D01*
X103519843Y-105291623D01*
X103519845Y-105291627D01*
X103519846Y-105291628D01*
X103655588Y-105513140D01*
X103824311Y-105710689D01*
X103830193Y-105715712D01*
X103868383Y-105774219D01*
X103868881Y-105844087D01*
X103831526Y-105903132D01*
X103830256Y-105904232D01*
X103824311Y-105909311D01*
X103824309Y-105909313D01*
X103655588Y-106106859D01*
X103519843Y-106328376D01*
X103420427Y-106568389D01*
X103359778Y-106821009D01*
X103339396Y-107080000D01*
X103359778Y-107338990D01*
X103420427Y-107591610D01*
X103519843Y-107831623D01*
X103519845Y-107831627D01*
X103519846Y-107831628D01*
X103655588Y-108053140D01*
X103824311Y-108250689D01*
X104021860Y-108419412D01*
X104101671Y-108468320D01*
X104148547Y-108520132D01*
X104151438Y-108526583D01*
X104163045Y-108554605D01*
X104163046Y-108554607D01*
X104196984Y-108636542D01*
X104196985Y-108636544D01*
X104245732Y-108709499D01*
X104245734Y-108709501D01*
X104295534Y-108784034D01*
X104295538Y-108784039D01*
X105225536Y-109714035D01*
X105350963Y-109839462D01*
X105350966Y-109839465D01*
X105498449Y-109938011D01*
X105498451Y-109938012D01*
X105498453Y-109938013D01*
X105524689Y-109948880D01*
X105524690Y-109948881D01*
X105524691Y-109948881D01*
X105662334Y-110005895D01*
X105836304Y-110040499D01*
X105836308Y-110040500D01*
X105836309Y-110040500D01*
X111773693Y-110040500D01*
X111773694Y-110040499D01*
X111947666Y-110005895D01*
X112029606Y-109971953D01*
X112111547Y-109938013D01*
X112246241Y-109848013D01*
X112246241Y-109848012D01*
X112246243Y-109848012D01*
X112252594Y-109843767D01*
X112259036Y-109839464D01*
X112474464Y-109624036D01*
X112524807Y-109548692D01*
X112548227Y-109513639D01*
X112563643Y-109494855D01*
X113961681Y-108096819D01*
X114023004Y-108063334D01*
X114049362Y-108060500D01*
X169063587Y-108060500D01*
X169128864Y-108079073D01*
X169157525Y-108096819D01*
X169242363Y-108149348D01*
X169432544Y-108223024D01*
X169633024Y-108260500D01*
X169633026Y-108260500D01*
X169836974Y-108260500D01*
X169836976Y-108260500D01*
X170037456Y-108223024D01*
X170227637Y-108149348D01*
X170401041Y-108041981D01*
X170551764Y-107904579D01*
X170674673Y-107741821D01*
X170765582Y-107559250D01*
X170816423Y-107380565D01*
X170853702Y-107321472D01*
X170917012Y-107291915D01*
X170935689Y-107290500D01*
X178120638Y-107290500D01*
X178187677Y-107310185D01*
X178208319Y-107326819D01*
X178696347Y-107814847D01*
X178729832Y-107876170D01*
X178724848Y-107945862D01*
X178682976Y-108001795D01*
X178648930Y-108019809D01*
X178470194Y-108081170D01*
X178470188Y-108081172D01*
X178251493Y-108199524D01*
X178055257Y-108352261D01*
X177896230Y-108525010D01*
X177836342Y-108561001D01*
X177766504Y-108558900D01*
X177713770Y-108525010D01*
X177661583Y-108468320D01*
X177554744Y-108352262D01*
X177358509Y-108199526D01*
X177358507Y-108199525D01*
X177358506Y-108199524D01*
X177139811Y-108081172D01*
X177139802Y-108081169D01*
X176904616Y-108000429D01*
X176659335Y-107959500D01*
X176410665Y-107959500D01*
X176165383Y-108000429D01*
X175930197Y-108081169D01*
X175930188Y-108081172D01*
X175711493Y-108199524D01*
X175515257Y-108352261D01*
X175356230Y-108525010D01*
X175296342Y-108561001D01*
X175226504Y-108558900D01*
X175173770Y-108525010D01*
X175121583Y-108468320D01*
X175014744Y-108352262D01*
X174818509Y-108199526D01*
X174818507Y-108199525D01*
X174818506Y-108199524D01*
X174599811Y-108081172D01*
X174599802Y-108081169D01*
X174364616Y-108000429D01*
X174119335Y-107959500D01*
X173870665Y-107959500D01*
X173625383Y-108000429D01*
X173390197Y-108081169D01*
X173390188Y-108081172D01*
X173171493Y-108199524D01*
X172975257Y-108352261D01*
X172806833Y-108535217D01*
X172670826Y-108743393D01*
X172570936Y-108971118D01*
X172509892Y-109212175D01*
X172509890Y-109212187D01*
X172489357Y-109459994D01*
X172489357Y-109460005D01*
X172509890Y-109707812D01*
X172509892Y-109707824D01*
X172570936Y-109948879D01*
X172670826Y-110176606D01*
X172806833Y-110384782D01*
X172806836Y-110384785D01*
X172975256Y-110567738D01*
X172975259Y-110567740D01*
X172975262Y-110567743D01*
X173058415Y-110632464D01*
X173099228Y-110689174D01*
X173102903Y-110758947D01*
X173068271Y-110819630D01*
X173058416Y-110828170D01*
X172975597Y-110892630D01*
X172975592Y-110892635D01*
X172807232Y-111075521D01*
X172671267Y-111283632D01*
X172571412Y-111511282D01*
X172510387Y-111752261D01*
X172510385Y-111752270D01*
X172489859Y-111999994D01*
X172489859Y-112000005D01*
X172510385Y-112247729D01*
X172510387Y-112247738D01*
X172571412Y-112488717D01*
X172671267Y-112716367D01*
X172807232Y-112924478D01*
X172975592Y-113107364D01*
X172975602Y-113107373D01*
X173171762Y-113260051D01*
X173171771Y-113260057D01*
X173390385Y-113378364D01*
X173390396Y-113378369D01*
X173625506Y-113459083D01*
X173870707Y-113500000D01*
X174119293Y-113500000D01*
X174364493Y-113459083D01*
X174599603Y-113378369D01*
X174599614Y-113378364D01*
X174818228Y-113260057D01*
X174818237Y-113260051D01*
X175014397Y-113107373D01*
X175014401Y-113107370D01*
X175173430Y-112934620D01*
X175233318Y-112898629D01*
X175303156Y-112900730D01*
X175355889Y-112934619D01*
X175515256Y-113107738D01*
X175711491Y-113260474D01*
X175711493Y-113260475D01*
X175929332Y-113378364D01*
X175930190Y-113378828D01*
X176149141Y-113453994D01*
X176163964Y-113459083D01*
X176165386Y-113459571D01*
X176410665Y-113500500D01*
X176659335Y-113500500D01*
X176904614Y-113459571D01*
X177139810Y-113378828D01*
X177358509Y-113260474D01*
X177554744Y-113107738D01*
X177713771Y-112934988D01*
X177773657Y-112898999D01*
X177843495Y-112901099D01*
X177896228Y-112934988D01*
X178055256Y-113107738D01*
X178251491Y-113260474D01*
X178251493Y-113260475D01*
X178469332Y-113378364D01*
X178470190Y-113378828D01*
X178689141Y-113453994D01*
X178703964Y-113459083D01*
X178705386Y-113459571D01*
X178950665Y-113500500D01*
X179199335Y-113500500D01*
X179444614Y-113459571D01*
X179679810Y-113378828D01*
X179898509Y-113260474D01*
X180094744Y-113107738D01*
X180253771Y-112934988D01*
X180313657Y-112898999D01*
X180383495Y-112901099D01*
X180436228Y-112934988D01*
X180595256Y-113107738D01*
X180791491Y-113260474D01*
X180791493Y-113260475D01*
X181009332Y-113378364D01*
X181010190Y-113378828D01*
X181229141Y-113453994D01*
X181243964Y-113459083D01*
X181245386Y-113459571D01*
X181490665Y-113500500D01*
X181739335Y-113500500D01*
X181984614Y-113459571D01*
X182219810Y-113378828D01*
X182438509Y-113260474D01*
X182634744Y-113107738D01*
X182793771Y-112934988D01*
X182853657Y-112898999D01*
X182923495Y-112901099D01*
X182976228Y-112934988D01*
X183135256Y-113107738D01*
X183331491Y-113260474D01*
X183331493Y-113260475D01*
X183549332Y-113378364D01*
X183550190Y-113378828D01*
X183769141Y-113453994D01*
X183783964Y-113459083D01*
X183785386Y-113459571D01*
X184030665Y-113500500D01*
X184279335Y-113500500D01*
X184524614Y-113459571D01*
X184759810Y-113378828D01*
X184978509Y-113260474D01*
X185174744Y-113107738D01*
X185333771Y-112934988D01*
X185393657Y-112898999D01*
X185463495Y-112901099D01*
X185516228Y-112934988D01*
X185675256Y-113107738D01*
X185871491Y-113260474D01*
X185871493Y-113260475D01*
X186089332Y-113378364D01*
X186090190Y-113378828D01*
X186309141Y-113453994D01*
X186323964Y-113459083D01*
X186325386Y-113459571D01*
X186570665Y-113500500D01*
X186819335Y-113500500D01*
X187064614Y-113459571D01*
X187299810Y-113378828D01*
X187518509Y-113260474D01*
X187714744Y-113107738D01*
X187873771Y-112934988D01*
X187933657Y-112898999D01*
X188003495Y-112901099D01*
X188056228Y-112934988D01*
X188215256Y-113107738D01*
X188411491Y-113260474D01*
X188411493Y-113260475D01*
X188629332Y-113378364D01*
X188630190Y-113378828D01*
X188849141Y-113453994D01*
X188863964Y-113459083D01*
X188865386Y-113459571D01*
X189110665Y-113500500D01*
X189359335Y-113500500D01*
X189604614Y-113459571D01*
X189839810Y-113378828D01*
X190058509Y-113260474D01*
X190254744Y-113107738D01*
X190413771Y-112934988D01*
X190473657Y-112898999D01*
X190543495Y-112901099D01*
X190596228Y-112934988D01*
X190755256Y-113107738D01*
X190951491Y-113260474D01*
X190951493Y-113260475D01*
X191169332Y-113378364D01*
X191170190Y-113378828D01*
X191389141Y-113453994D01*
X191403964Y-113459083D01*
X191405386Y-113459571D01*
X191650665Y-113500500D01*
X191899335Y-113500500D01*
X192144614Y-113459571D01*
X192379810Y-113378828D01*
X192598509Y-113260474D01*
X192794744Y-113107738D01*
X192953771Y-112934988D01*
X193013657Y-112898999D01*
X193083495Y-112901099D01*
X193136228Y-112934988D01*
X193295256Y-113107738D01*
X193491491Y-113260474D01*
X193491493Y-113260475D01*
X193709332Y-113378364D01*
X193710190Y-113378828D01*
X193929141Y-113453994D01*
X193943964Y-113459083D01*
X193945386Y-113459571D01*
X194190665Y-113500500D01*
X194439335Y-113500500D01*
X194684614Y-113459571D01*
X194919810Y-113378828D01*
X195138509Y-113260474D01*
X195334744Y-113107738D01*
X195493771Y-112934988D01*
X195553657Y-112898999D01*
X195623495Y-112901099D01*
X195676228Y-112934988D01*
X195835256Y-113107738D01*
X196031491Y-113260474D01*
X196031493Y-113260475D01*
X196249332Y-113378364D01*
X196250190Y-113378828D01*
X196469141Y-113453994D01*
X196483964Y-113459083D01*
X196485386Y-113459571D01*
X196730665Y-113500500D01*
X196979335Y-113500500D01*
X197224614Y-113459571D01*
X197459810Y-113378828D01*
X197678509Y-113260474D01*
X197874744Y-113107738D01*
X198043164Y-112924785D01*
X198179173Y-112716607D01*
X198279063Y-112488881D01*
X198340108Y-112247821D01*
X198360643Y-112000000D01*
X198340108Y-111752179D01*
X198340107Y-111752175D01*
X198279063Y-111511118D01*
X198179173Y-111283393D01*
X198043166Y-111075217D01*
X197937561Y-110960500D01*
X197874744Y-110892262D01*
X197791991Y-110827852D01*
X197751179Y-110771143D01*
X197747504Y-110701370D01*
X197782136Y-110640687D01*
X197791985Y-110632151D01*
X197874744Y-110567738D01*
X198043164Y-110384785D01*
X198179173Y-110176607D01*
X198279063Y-109948881D01*
X198281815Y-109938016D01*
X198340107Y-109707824D01*
X198340108Y-109707821D01*
X198340109Y-109707812D01*
X198360643Y-109460005D01*
X198360643Y-109459994D01*
X198340109Y-109212187D01*
X198340107Y-109212175D01*
X198279063Y-108971118D01*
X198179173Y-108743393D01*
X198043166Y-108535217D01*
X198021557Y-108511744D01*
X197874744Y-108352262D01*
X197678509Y-108199526D01*
X197678507Y-108199525D01*
X197678506Y-108199524D01*
X197459811Y-108081172D01*
X197459802Y-108081169D01*
X197224616Y-108000429D01*
X196979335Y-107959500D01*
X196730665Y-107959500D01*
X196485383Y-108000429D01*
X196250197Y-108081169D01*
X196250188Y-108081172D01*
X196031493Y-108199524D01*
X195835257Y-108352261D01*
X195676230Y-108525010D01*
X195616342Y-108561001D01*
X195546504Y-108558900D01*
X195493770Y-108525010D01*
X195441583Y-108468320D01*
X195334744Y-108352262D01*
X195138509Y-108199526D01*
X195138507Y-108199525D01*
X195138506Y-108199524D01*
X194919811Y-108081172D01*
X194919802Y-108081169D01*
X194684616Y-108000429D01*
X194439335Y-107959500D01*
X194190665Y-107959500D01*
X193945383Y-108000429D01*
X193710197Y-108081169D01*
X193710188Y-108081172D01*
X193491493Y-108199524D01*
X193295257Y-108352261D01*
X193136230Y-108525010D01*
X193076342Y-108561001D01*
X193006504Y-108558900D01*
X192953770Y-108525010D01*
X192901583Y-108468320D01*
X192794744Y-108352262D01*
X192598509Y-108199526D01*
X192598507Y-108199525D01*
X192598506Y-108199524D01*
X192379811Y-108081172D01*
X192379802Y-108081169D01*
X192144616Y-108000429D01*
X191899335Y-107959500D01*
X191650665Y-107959500D01*
X191650664Y-107959500D01*
X191625635Y-107963676D01*
X191556270Y-107955293D01*
X191517547Y-107929048D01*
X189886819Y-106298319D01*
X189853334Y-106236996D01*
X189850500Y-106210638D01*
X189850500Y-102084500D01*
X189870185Y-102017461D01*
X189922989Y-101971706D01*
X189974500Y-101960500D01*
X190134105Y-101960500D01*
X190134108Y-101960500D01*
X190288434Y-101945300D01*
X190486454Y-101885232D01*
X190668950Y-101787685D01*
X190828910Y-101656410D01*
X190960185Y-101496450D01*
X190991506Y-101437853D01*
X190997817Y-101426047D01*
X191046779Y-101376203D01*
X191107175Y-101360500D01*
X198187547Y-101360500D01*
X198254586Y-101380185D01*
X198281833Y-101403965D01*
X198344653Y-101477517D01*
X198359776Y-101495224D01*
X198551343Y-101658838D01*
X198551346Y-101658839D01*
X198766140Y-101790466D01*
X198902426Y-101846917D01*
X198998889Y-101886873D01*
X199243852Y-101945683D01*
X199495000Y-101965449D01*
X199746148Y-101945683D01*
X199991111Y-101886873D01*
X200223859Y-101790466D01*
X200438659Y-101658836D01*
X200630224Y-101495224D01*
X200793836Y-101303659D01*
X200925466Y-101088859D01*
X201021873Y-100856111D01*
X201080683Y-100611148D01*
X201100449Y-100360000D01*
X201080683Y-100108852D01*
X201021873Y-99863889D01*
X200961854Y-99718990D01*
X200925466Y-99631140D01*
X200807474Y-99438596D01*
X200789229Y-99371150D01*
X200810345Y-99304548D01*
X200864117Y-99259934D01*
X200933473Y-99251474D01*
X200952579Y-99256936D01*
X200952758Y-99256388D01*
X200957389Y-99257892D01*
X200957394Y-99257895D01*
X201050385Y-99288108D01*
X201052089Y-99288678D01*
X201138138Y-99318219D01*
X201150019Y-99322298D01*
X201152387Y-99322693D01*
X201162258Y-99325105D01*
X201162313Y-99324877D01*
X201167034Y-99326010D01*
X201167049Y-99326015D01*
X201269798Y-99342288D01*
X201270607Y-99342420D01*
X201378951Y-99360500D01*
X201378956Y-99360500D01*
X201611044Y-99360500D01*
X201611049Y-99360500D01*
X201719678Y-99342372D01*
X201719970Y-99342324D01*
X201822951Y-99326015D01*
X201822956Y-99326013D01*
X201827689Y-99324877D01*
X201827744Y-99325109D01*
X201837621Y-99322691D01*
X201839981Y-99322298D01*
X201937838Y-99288702D01*
X201939683Y-99288085D01*
X202032606Y-99257895D01*
X202035199Y-99256573D01*
X202051249Y-99249769D01*
X202059503Y-99246936D01*
X202144988Y-99200673D01*
X202147634Y-99199284D01*
X202229022Y-99157815D01*
X202236495Y-99152385D01*
X202250379Y-99143637D01*
X202263626Y-99136470D01*
X202335329Y-99080660D01*
X202338559Y-99078231D01*
X202407365Y-99028242D01*
X202409065Y-99026542D01*
X202418375Y-99017232D01*
X202429899Y-99007055D01*
X202446779Y-98993917D01*
X202446779Y-98993916D01*
X202446784Y-98993913D01*
X202504065Y-98931687D01*
X202507543Y-98928062D01*
X202563242Y-98872365D01*
X202576117Y-98854641D01*
X202585199Y-98843552D01*
X202603979Y-98823153D01*
X202646773Y-98757649D01*
X202650252Y-98752605D01*
X202692813Y-98694025D01*
X202692813Y-98694024D01*
X202692815Y-98694022D01*
X202705629Y-98668872D01*
X202712305Y-98657346D01*
X202730924Y-98628849D01*
X202759818Y-98562974D01*
X202762869Y-98556533D01*
X202792895Y-98497606D01*
X202803574Y-98464737D01*
X202807943Y-98453263D01*
X202812186Y-98443590D01*
X202824157Y-98416300D01*
X202840265Y-98352689D01*
X202842540Y-98344810D01*
X202847365Y-98329960D01*
X202861015Y-98287951D01*
X202867407Y-98247584D01*
X202869666Y-98236586D01*
X202881134Y-98191305D01*
X202886034Y-98132165D01*
X202887133Y-98123045D01*
X202895500Y-98070222D01*
X202895500Y-98023051D01*
X202895924Y-98012810D01*
X202900300Y-97960004D01*
X202895923Y-97907175D01*
X202895500Y-97896936D01*
X202895500Y-97849780D01*
X202895500Y-97849778D01*
X202887133Y-97796950D01*
X202886034Y-97787832D01*
X202881134Y-97728695D01*
X202869668Y-97683421D01*
X202867407Y-97672414D01*
X202861015Y-97632049D01*
X202842536Y-97575177D01*
X202840266Y-97567314D01*
X202824157Y-97503701D01*
X202824156Y-97503697D01*
X202807944Y-97466737D01*
X202803569Y-97455246D01*
X202792895Y-97422394D01*
X202762871Y-97363470D01*
X202759814Y-97357014D01*
X202759811Y-97357008D01*
X202730924Y-97291151D01*
X202712299Y-97262643D01*
X202705626Y-97251122D01*
X202692815Y-97225978D01*
X202650238Y-97167376D01*
X202646766Y-97162338D01*
X202603978Y-97096845D01*
X202585206Y-97076454D01*
X202576119Y-97065359D01*
X202563242Y-97047635D01*
X202507590Y-96991983D01*
X202504044Y-96988288D01*
X202495379Y-96978876D01*
X202464455Y-96916223D01*
X202472312Y-96846796D01*
X202506075Y-96800599D01*
X202629870Y-96694869D01*
X202793428Y-96503367D01*
X202793431Y-96503362D01*
X202925019Y-96288631D01*
X203021396Y-96055956D01*
X203080187Y-95811072D01*
X203099947Y-95560000D01*
X203080187Y-95308927D01*
X203021396Y-95064043D01*
X202925019Y-94831368D01*
X202793431Y-94616637D01*
X202793428Y-94616632D01*
X202629869Y-94425130D01*
X202438367Y-94261571D01*
X202438362Y-94261568D01*
X202223631Y-94129980D01*
X201990956Y-94033603D01*
X201746072Y-93974812D01*
X201495000Y-93955052D01*
X201243927Y-93974812D01*
X200999043Y-94033603D01*
X200766368Y-94129980D01*
X200551637Y-94261568D01*
X200551632Y-94261571D01*
X200360130Y-94425130D01*
X200196571Y-94616632D01*
X200196568Y-94616637D01*
X200064980Y-94831368D01*
X199968603Y-95064043D01*
X199909812Y-95308927D01*
X199890052Y-95560000D01*
X199909812Y-95811072D01*
X199968603Y-96055956D01*
X200064980Y-96288631D01*
X200196568Y-96503362D01*
X200196571Y-96503367D01*
X200360132Y-96694872D01*
X200483924Y-96800600D01*
X200522118Y-96859106D01*
X200522617Y-96928974D01*
X200494620Y-96978876D01*
X200485967Y-96988275D01*
X200482423Y-96991969D01*
X200426759Y-97047634D01*
X200413880Y-97065359D01*
X200404801Y-97076444D01*
X200386025Y-97096841D01*
X200386018Y-97096850D01*
X200343230Y-97162341D01*
X200339743Y-97167400D01*
X200297186Y-97225976D01*
X200297184Y-97225980D01*
X200284369Y-97251128D01*
X200277699Y-97262643D01*
X200259081Y-97291141D01*
X200259073Y-97291156D01*
X200230186Y-97357009D01*
X200227117Y-97363489D01*
X200197108Y-97422384D01*
X200197103Y-97422397D01*
X200186429Y-97455248D01*
X200182056Y-97466734D01*
X200165845Y-97503691D01*
X200165844Y-97503694D01*
X200149735Y-97567305D01*
X200147462Y-97575177D01*
X200128986Y-97632042D01*
X200128985Y-97632049D01*
X200122594Y-97672394D01*
X200120327Y-97683429D01*
X200108867Y-97728687D01*
X200108865Y-97728699D01*
X200103967Y-97787798D01*
X200102865Y-97796950D01*
X200094500Y-97849775D01*
X200094500Y-97896936D01*
X200094077Y-97907174D01*
X200089700Y-97960004D01*
X200094076Y-98012810D01*
X200094500Y-98023051D01*
X200094500Y-98070223D01*
X200102865Y-98123047D01*
X200103967Y-98132200D01*
X200108865Y-98191303D01*
X200120328Y-98236569D01*
X200122595Y-98247609D01*
X200128985Y-98287953D01*
X200147460Y-98344813D01*
X200149734Y-98352689D01*
X200165843Y-98416300D01*
X200182057Y-98453268D01*
X200186429Y-98464752D01*
X200197103Y-98497602D01*
X200197104Y-98497605D01*
X200227116Y-98556507D01*
X200230186Y-98562990D01*
X200259073Y-98628845D01*
X200277697Y-98657351D01*
X200284370Y-98668872D01*
X200297185Y-98694022D01*
X200315091Y-98718668D01*
X200338571Y-98784473D01*
X200322746Y-98852527D01*
X200272641Y-98901222D01*
X200204163Y-98915098D01*
X200167321Y-98906114D01*
X199991113Y-98833127D01*
X199746151Y-98774317D01*
X199495000Y-98754551D01*
X199243848Y-98774317D01*
X198998889Y-98833126D01*
X198766140Y-98929533D01*
X198551346Y-99061160D01*
X198551343Y-99061161D01*
X198359776Y-99224776D01*
X198196162Y-99416343D01*
X198169410Y-99460000D01*
X198147572Y-99495637D01*
X198144721Y-99500289D01*
X198092909Y-99547165D01*
X198038993Y-99559500D01*
X195892126Y-99559500D01*
X195825087Y-99539815D01*
X195779332Y-99487011D01*
X195769388Y-99417853D01*
X195798413Y-99354297D01*
X195851862Y-99318219D01*
X195891683Y-99304548D01*
X195937838Y-99288702D01*
X195939683Y-99288085D01*
X196032606Y-99257895D01*
X196035199Y-99256573D01*
X196051249Y-99249769D01*
X196059503Y-99246936D01*
X196144988Y-99200673D01*
X196147634Y-99199284D01*
X196229022Y-99157815D01*
X196236495Y-99152385D01*
X196250379Y-99143637D01*
X196263626Y-99136470D01*
X196335329Y-99080660D01*
X196338559Y-99078231D01*
X196407365Y-99028242D01*
X196409065Y-99026542D01*
X196418375Y-99017232D01*
X196429899Y-99007055D01*
X196446779Y-98993917D01*
X196446779Y-98993916D01*
X196446784Y-98993913D01*
X196504065Y-98931687D01*
X196507543Y-98928062D01*
X196563242Y-98872365D01*
X196576117Y-98854641D01*
X196585199Y-98843552D01*
X196603979Y-98823153D01*
X196646773Y-98757649D01*
X196650252Y-98752605D01*
X196692813Y-98694025D01*
X196692813Y-98694024D01*
X196692815Y-98694022D01*
X196705629Y-98668872D01*
X196712305Y-98657346D01*
X196730924Y-98628849D01*
X196759818Y-98562974D01*
X196762869Y-98556533D01*
X196792895Y-98497606D01*
X196803574Y-98464737D01*
X196807943Y-98453263D01*
X196812186Y-98443590D01*
X196824157Y-98416300D01*
X196840265Y-98352689D01*
X196842540Y-98344810D01*
X196847365Y-98329960D01*
X196861015Y-98287951D01*
X196867407Y-98247584D01*
X196869666Y-98236586D01*
X196881134Y-98191305D01*
X196886034Y-98132165D01*
X196887133Y-98123045D01*
X196895500Y-98070222D01*
X196895500Y-98023051D01*
X196895924Y-98012810D01*
X196900300Y-97960004D01*
X196895923Y-97907174D01*
X196895500Y-97896936D01*
X196895500Y-97849780D01*
X196895500Y-97849778D01*
X196887133Y-97796950D01*
X196886034Y-97787832D01*
X196881134Y-97728695D01*
X196869668Y-97683421D01*
X196867407Y-97672414D01*
X196861015Y-97632049D01*
X196842536Y-97575177D01*
X196840266Y-97567314D01*
X196824157Y-97503701D01*
X196824156Y-97503697D01*
X196807944Y-97466737D01*
X196803569Y-97455246D01*
X196792895Y-97422394D01*
X196762871Y-97363470D01*
X196759814Y-97357014D01*
X196759811Y-97357008D01*
X196730924Y-97291151D01*
X196712299Y-97262643D01*
X196705626Y-97251122D01*
X196692815Y-97225978D01*
X196650238Y-97167376D01*
X196646766Y-97162338D01*
X196603978Y-97096845D01*
X196585206Y-97076454D01*
X196576119Y-97065359D01*
X196563242Y-97047635D01*
X196507590Y-96991983D01*
X196504042Y-96988285D01*
X196446787Y-96926090D01*
X196446782Y-96926085D01*
X196429893Y-96912940D01*
X196418375Y-96902768D01*
X196407361Y-96891754D01*
X196338596Y-96841795D01*
X196335318Y-96839329D01*
X196263635Y-96783536D01*
X196263623Y-96783528D01*
X196250367Y-96776354D01*
X196236502Y-96767620D01*
X196229022Y-96762185D01*
X196147629Y-96720712D01*
X196144958Y-96719309D01*
X196059503Y-96673064D01*
X196051233Y-96670224D01*
X196035210Y-96663432D01*
X196032601Y-96662102D01*
X195939732Y-96631928D01*
X195937788Y-96631279D01*
X195900511Y-96618482D01*
X195843495Y-96578096D01*
X195817364Y-96513297D01*
X195830415Y-96444657D01*
X195835046Y-96436410D01*
X195837143Y-96432989D01*
X195925466Y-96288859D01*
X196021873Y-96056111D01*
X196080683Y-95811148D01*
X196100449Y-95560000D01*
X196080683Y-95308852D01*
X196021873Y-95063889D01*
X195925466Y-94831141D01*
X195925466Y-94831140D01*
X195793839Y-94616346D01*
X195793838Y-94616343D01*
X195737250Y-94550087D01*
X195630224Y-94424776D01*
X195452091Y-94272636D01*
X195438656Y-94261161D01*
X195438653Y-94261160D01*
X195223859Y-94129533D01*
X194991110Y-94033126D01*
X194746151Y-93974317D01*
X194495000Y-93954551D01*
X194243848Y-93974317D01*
X193998889Y-94033126D01*
X193766140Y-94129533D01*
X193551346Y-94261160D01*
X193551343Y-94261161D01*
X193376704Y-94410318D01*
X193359776Y-94424776D01*
X193345492Y-94441501D01*
X193196428Y-94616032D01*
X193137921Y-94654225D01*
X193102138Y-94659500D01*
X191160627Y-94659500D01*
X191093588Y-94639815D01*
X191051269Y-94593954D01*
X191013198Y-94522730D01*
X190960185Y-94423550D01*
X190853793Y-94293910D01*
X190828910Y-94263589D01*
X190711177Y-94166969D01*
X190668950Y-94132315D01*
X190486454Y-94034768D01*
X190288434Y-93974700D01*
X190288432Y-93974699D01*
X190288434Y-93974699D01*
X190169305Y-93962966D01*
X190134108Y-93959500D01*
X190134105Y-93959500D01*
X189961850Y-93959500D01*
X189894811Y-93939815D01*
X189849056Y-93887011D01*
X189840233Y-93859694D01*
X189815895Y-93737334D01*
X189771805Y-93630893D01*
X189771642Y-93630500D01*
X189748015Y-93573457D01*
X189748014Y-93573456D01*
X189748013Y-93573453D01*
X189712534Y-93520357D01*
X189688936Y-93485039D01*
X189688936Y-93485038D01*
X189688933Y-93485036D01*
X189685962Y-93480590D01*
X189651803Y-93429464D01*
X189649466Y-93425966D01*
X188147349Y-91923849D01*
X188113864Y-91862526D01*
X188118848Y-91792834D01*
X188125672Y-91777714D01*
X188127681Y-91773953D01*
X188127685Y-91773950D01*
X188225232Y-91591454D01*
X188285300Y-91393434D01*
X188300500Y-91239108D01*
X188300500Y-90610892D01*
X188285300Y-90456566D01*
X188225232Y-90258546D01*
X188127685Y-90076050D01*
X188127681Y-90076046D01*
X188124960Y-90070954D01*
X188110718Y-90002551D01*
X188124960Y-89954046D01*
X188127681Y-89948953D01*
X188127685Y-89948950D01*
X188225232Y-89766454D01*
X188285300Y-89568434D01*
X188300500Y-89414108D01*
X188300500Y-88785892D01*
X188285300Y-88631566D01*
X188225232Y-88433546D01*
X188127685Y-88251050D01*
X188060963Y-88169748D01*
X187996410Y-88091089D01*
X187859620Y-87978830D01*
X187836450Y-87959815D01*
X187740214Y-87908375D01*
X187690372Y-87859414D01*
X187674912Y-87791277D01*
X187698744Y-87725597D01*
X187711316Y-87711555D01*
X187711270Y-87711512D01*
X187714394Y-87708118D01*
X187714697Y-87707780D01*
X187714729Y-87707749D01*
X187714744Y-87707738D01*
X187874111Y-87534618D01*
X187933996Y-87498629D01*
X188003834Y-87500729D01*
X188056568Y-87534619D01*
X188215592Y-87707364D01*
X188215602Y-87707373D01*
X188411762Y-87860051D01*
X188411771Y-87860057D01*
X188630385Y-87978364D01*
X188630396Y-87978369D01*
X188865506Y-88059083D01*
X189110707Y-88100000D01*
X189359293Y-88100000D01*
X189604493Y-88059083D01*
X189839603Y-87978369D01*
X189839614Y-87978364D01*
X190058228Y-87860057D01*
X190058237Y-87860051D01*
X190254397Y-87707373D01*
X190254401Y-87707370D01*
X190413430Y-87534620D01*
X190473318Y-87498629D01*
X190543156Y-87500730D01*
X190595889Y-87534619D01*
X190755256Y-87707738D01*
X190951491Y-87860474D01*
X190993537Y-87883228D01*
X191169332Y-87978364D01*
X191170190Y-87978828D01*
X191372485Y-88048276D01*
X191403964Y-88059083D01*
X191405386Y-88059571D01*
X191650665Y-88100500D01*
X191899335Y-88100500D01*
X192144614Y-88059571D01*
X192379810Y-87978828D01*
X192598509Y-87860474D01*
X192794744Y-87707738D01*
X192953771Y-87534988D01*
X193013657Y-87498999D01*
X193083495Y-87501099D01*
X193136228Y-87534988D01*
X193295256Y-87707738D01*
X193491491Y-87860474D01*
X193533537Y-87883228D01*
X193709332Y-87978364D01*
X193710190Y-87978828D01*
X193912485Y-88048276D01*
X193943964Y-88059083D01*
X193945386Y-88059571D01*
X194190665Y-88100500D01*
X194439335Y-88100500D01*
X194684614Y-88059571D01*
X194919810Y-87978828D01*
X195138509Y-87860474D01*
X195334744Y-87707738D01*
X195493771Y-87534988D01*
X195553657Y-87498999D01*
X195623495Y-87501099D01*
X195676228Y-87534988D01*
X195835256Y-87707738D01*
X196031491Y-87860474D01*
X196073537Y-87883228D01*
X196249332Y-87978364D01*
X196250190Y-87978828D01*
X196452485Y-88048276D01*
X196483964Y-88059083D01*
X196485386Y-88059571D01*
X196730665Y-88100500D01*
X196979335Y-88100500D01*
X197224614Y-88059571D01*
X197459810Y-87978828D01*
X197678509Y-87860474D01*
X197874744Y-87707738D01*
X198043164Y-87524785D01*
X198179173Y-87316607D01*
X198279063Y-87088881D01*
X198340108Y-86847821D01*
X198343737Y-86804027D01*
X198360643Y-86600005D01*
X198360643Y-86599994D01*
X198340109Y-86352187D01*
X198340107Y-86352175D01*
X198279063Y-86111118D01*
X198179173Y-85883393D01*
X198043166Y-85675217D01*
X198021557Y-85651744D01*
X197874744Y-85492262D01*
X197791991Y-85427852D01*
X197751179Y-85371143D01*
X197747504Y-85301370D01*
X197782136Y-85240687D01*
X197791985Y-85232151D01*
X197874744Y-85167738D01*
X198043164Y-84984785D01*
X198179173Y-84776607D01*
X198279063Y-84548881D01*
X198340108Y-84307821D01*
X198340590Y-84302010D01*
X198360643Y-84060005D01*
X198360643Y-84059994D01*
X198340109Y-83812187D01*
X198340107Y-83812175D01*
X198279063Y-83571118D01*
X198179173Y-83343393D01*
X198043166Y-83135217D01*
X197965828Y-83051206D01*
X197874744Y-82952262D01*
X197678509Y-82799526D01*
X197678507Y-82799525D01*
X197678506Y-82799524D01*
X197459811Y-82681172D01*
X197459802Y-82681169D01*
X197224616Y-82600429D01*
X196979335Y-82559500D01*
X196730665Y-82559500D01*
X196485383Y-82600429D01*
X196250197Y-82681169D01*
X196250188Y-82681172D01*
X196031493Y-82799524D01*
X195835257Y-82952261D01*
X195676230Y-83125010D01*
X195616342Y-83161001D01*
X195546504Y-83158900D01*
X195493770Y-83125010D01*
X195425828Y-83051206D01*
X195334744Y-82952262D01*
X195138509Y-82799526D01*
X195138507Y-82799525D01*
X195138506Y-82799524D01*
X194919811Y-82681172D01*
X194919802Y-82681169D01*
X194684616Y-82600429D01*
X194439335Y-82559500D01*
X194190665Y-82559500D01*
X193945383Y-82600429D01*
X193710197Y-82681169D01*
X193710188Y-82681172D01*
X193491493Y-82799524D01*
X193295257Y-82952261D01*
X193136230Y-83125010D01*
X193076342Y-83161001D01*
X193006504Y-83158900D01*
X192953770Y-83125010D01*
X192885828Y-83051206D01*
X192794744Y-82952262D01*
X192598509Y-82799526D01*
X192598507Y-82799525D01*
X192598506Y-82799524D01*
X192379811Y-82681172D01*
X192379802Y-82681169D01*
X192144616Y-82600429D01*
X191899335Y-82559500D01*
X191650665Y-82559500D01*
X191405383Y-82600429D01*
X191170197Y-82681169D01*
X191170188Y-82681172D01*
X190951493Y-82799524D01*
X190755257Y-82952261D01*
X190596230Y-83125010D01*
X190536342Y-83161001D01*
X190466504Y-83158900D01*
X190413770Y-83125010D01*
X190345828Y-83051206D01*
X190254744Y-82952262D01*
X190058509Y-82799526D01*
X190058507Y-82799525D01*
X190058506Y-82799524D01*
X189839811Y-82681172D01*
X189839802Y-82681169D01*
X189604616Y-82600429D01*
X189359335Y-82559500D01*
X189110665Y-82559500D01*
X188865383Y-82600429D01*
X188630197Y-82681169D01*
X188630188Y-82681172D01*
X188411493Y-82799524D01*
X188215257Y-82952261D01*
X188056230Y-83125010D01*
X187996342Y-83161001D01*
X187926504Y-83158900D01*
X187873770Y-83125010D01*
X187805828Y-83051206D01*
X187714744Y-82952262D01*
X187518509Y-82799526D01*
X187518507Y-82799525D01*
X187518506Y-82799524D01*
X187299811Y-82681172D01*
X187299802Y-82681169D01*
X187064616Y-82600429D01*
X186819335Y-82559500D01*
X186570665Y-82559500D01*
X186325383Y-82600429D01*
X186090197Y-82681169D01*
X186090188Y-82681172D01*
X185871493Y-82799524D01*
X185675257Y-82952261D01*
X185516230Y-83125010D01*
X185456342Y-83161001D01*
X185386504Y-83158900D01*
X185333770Y-83125010D01*
X185265828Y-83051206D01*
X185174744Y-82952262D01*
X184978509Y-82799526D01*
X184978507Y-82799525D01*
X184978506Y-82799524D01*
X184759811Y-82681172D01*
X184759802Y-82681169D01*
X184524616Y-82600429D01*
X184279335Y-82559500D01*
X184030665Y-82559500D01*
X183785383Y-82600429D01*
X183550197Y-82681169D01*
X183550188Y-82681172D01*
X183331493Y-82799524D01*
X183135257Y-82952261D01*
X182976230Y-83125010D01*
X182916342Y-83161001D01*
X182846504Y-83158900D01*
X182793770Y-83125010D01*
X182725828Y-83051206D01*
X182634744Y-82952262D01*
X182438509Y-82799526D01*
X182438507Y-82799525D01*
X182438506Y-82799524D01*
X182219811Y-82681172D01*
X182219802Y-82681169D01*
X181984616Y-82600429D01*
X181739335Y-82559500D01*
X181490665Y-82559500D01*
X181245383Y-82600429D01*
X181010197Y-82681169D01*
X181010188Y-82681172D01*
X180791493Y-82799524D01*
X180595257Y-82952261D01*
X180436230Y-83125010D01*
X180376342Y-83161001D01*
X180306504Y-83158900D01*
X180253770Y-83125010D01*
X180185828Y-83051206D01*
X180094744Y-82952262D01*
X179898509Y-82799526D01*
X179898507Y-82799525D01*
X179898506Y-82799524D01*
X179679811Y-82681172D01*
X179679802Y-82681169D01*
X179444616Y-82600429D01*
X179199335Y-82559500D01*
X178950665Y-82559500D01*
X178705383Y-82600429D01*
X178470197Y-82681169D01*
X178470188Y-82681172D01*
X178251493Y-82799524D01*
X178055257Y-82952261D01*
X177896230Y-83125010D01*
X177836342Y-83161001D01*
X177766504Y-83158900D01*
X177713770Y-83125010D01*
X177645828Y-83051206D01*
X177554744Y-82952262D01*
X177358509Y-82799526D01*
X177358507Y-82799525D01*
X177358506Y-82799524D01*
X177139811Y-82681172D01*
X177139802Y-82681169D01*
X176904616Y-82600429D01*
X176659335Y-82559500D01*
X176410665Y-82559500D01*
X176165383Y-82600429D01*
X175930197Y-82681169D01*
X175930188Y-82681172D01*
X175711493Y-82799524D01*
X175515255Y-82952262D01*
X175515252Y-82952265D01*
X175355889Y-83125379D01*
X175296002Y-83161370D01*
X175226164Y-83159269D01*
X175173431Y-83125379D01*
X175014407Y-82952635D01*
X175014397Y-82952626D01*
X174818237Y-82799948D01*
X174818228Y-82799942D01*
X174599614Y-82681635D01*
X174599603Y-82681630D01*
X174364493Y-82600916D01*
X174119293Y-82560000D01*
X173870707Y-82560000D01*
X173625506Y-82600916D01*
X173390396Y-82681630D01*
X173390385Y-82681635D01*
X173171771Y-82799942D01*
X173171762Y-82799948D01*
X172975602Y-82952626D01*
X172975592Y-82952635D01*
X172807232Y-83135521D01*
X172671267Y-83343632D01*
X172571412Y-83571282D01*
X172510387Y-83812261D01*
X172510385Y-83812270D01*
X172489859Y-84059994D01*
X172489859Y-84060005D01*
X172510810Y-84312849D01*
X172508992Y-84312999D01*
X172501557Y-84374470D01*
X172456997Y-84428287D01*
X172390415Y-84449469D01*
X172387636Y-84449500D01*
X157099361Y-84449500D01*
X157032322Y-84429815D01*
X157011680Y-84413181D01*
X155139038Y-82540537D01*
X155139034Y-82540533D01*
X155079961Y-82501064D01*
X155079960Y-82501063D01*
X154991544Y-82441985D01*
X154991542Y-82441984D01*
X154909607Y-82408046D01*
X154909606Y-82408046D01*
X154827666Y-82374105D01*
X154827658Y-82374103D01*
X154653696Y-82339500D01*
X154653692Y-82339500D01*
X154653691Y-82339500D01*
X149013692Y-82339500D01*
X148836309Y-82339500D01*
X148836304Y-82339500D01*
X148662339Y-82374103D01*
X148662323Y-82374108D01*
X148546453Y-82422102D01*
X148546454Y-82422103D01*
X148498454Y-82441986D01*
X148352655Y-82539407D01*
X148352646Y-82539413D01*
X148350965Y-82540535D01*
X148350958Y-82540541D01*
X146485540Y-84405958D01*
X146485537Y-84405961D01*
X146456164Y-84449923D01*
X146386988Y-84553449D01*
X146365203Y-84606045D01*
X146331882Y-84686489D01*
X146319105Y-84717334D01*
X146285602Y-84885769D01*
X146285601Y-84885774D01*
X146284500Y-84891307D01*
X146284500Y-91968690D01*
X146302163Y-92057492D01*
X146295934Y-92127083D01*
X146253071Y-92182260D01*
X146187181Y-92205504D01*
X146119184Y-92189436D01*
X146092864Y-92169363D01*
X145934039Y-92010538D01*
X145934034Y-92010534D01*
X145890583Y-91981502D01*
X145868857Y-91966985D01*
X145804300Y-91923849D01*
X145786549Y-91911988D01*
X145786547Y-91911987D01*
X145700987Y-91876547D01*
X145622666Y-91844105D01*
X145622658Y-91844103D01*
X145448696Y-91809500D01*
X145448692Y-91809500D01*
X145448691Y-91809500D01*
X143358692Y-91809500D01*
X143181308Y-91809500D01*
X143181303Y-91809500D01*
X143007341Y-91844103D01*
X143007333Y-91844105D01*
X142904871Y-91886547D01*
X142904870Y-91886547D01*
X142843459Y-91911983D01*
X142843452Y-91911987D01*
X142825700Y-91923849D01*
X142758590Y-91968691D01*
X142695965Y-92010535D01*
X142695961Y-92010538D01*
X142316698Y-92389801D01*
X142255375Y-92423286D01*
X142185683Y-92418302D01*
X142129750Y-92376430D01*
X142107851Y-92328478D01*
X142085030Y-92223575D01*
X141986551Y-91959540D01*
X141986549Y-91959536D01*
X141851506Y-91712222D01*
X141851501Y-91712214D01*
X141682636Y-91486636D01*
X141682620Y-91486618D01*
X141483381Y-91287379D01*
X141483363Y-91287363D01*
X141257785Y-91118498D01*
X141257777Y-91118493D01*
X141010463Y-90983450D01*
X141010459Y-90983448D01*
X140746424Y-90884969D01*
X140471081Y-90825071D01*
X140190001Y-90804968D01*
X140189999Y-90804968D01*
X139908918Y-90825071D01*
X139633575Y-90884969D01*
X139369540Y-90983448D01*
X139369536Y-90983450D01*
X139122222Y-91118493D01*
X139122214Y-91118498D01*
X138896636Y-91287363D01*
X138896618Y-91287379D01*
X138697379Y-91486618D01*
X138697363Y-91486636D01*
X138528498Y-91712214D01*
X138528493Y-91712222D01*
X138393450Y-91959536D01*
X138393448Y-91959540D01*
X138294969Y-92223575D01*
X138235071Y-92498918D01*
X138214968Y-92779998D01*
X138214968Y-92780001D01*
X138235071Y-93061081D01*
X138294969Y-93336424D01*
X138393448Y-93600459D01*
X138393450Y-93600463D01*
X138528493Y-93847777D01*
X138528498Y-93847785D01*
X138697363Y-94073363D01*
X138697379Y-94073381D01*
X138896618Y-94272620D01*
X138896636Y-94272636D01*
X139122214Y-94441501D01*
X139122222Y-94441506D01*
X139369536Y-94576549D01*
X139369540Y-94576551D01*
X139633575Y-94675030D01*
X139738477Y-94697851D01*
X139799800Y-94731336D01*
X139833285Y-94792659D01*
X139828301Y-94862351D01*
X139799800Y-94906698D01*
X139490537Y-95215961D01*
X139458806Y-95263452D01*
X139458805Y-95263453D01*
X139391988Y-95363449D01*
X139365527Y-95427334D01*
X139324105Y-95527333D01*
X139324103Y-95527341D01*
X139293638Y-95680498D01*
X139293639Y-95680499D01*
X139289500Y-95701308D01*
X139289500Y-95953011D01*
X139269815Y-96020050D01*
X139224927Y-96061843D01*
X139121951Y-96118072D01*
X139121943Y-96118077D01*
X138896308Y-96286985D01*
X138896290Y-96287001D01*
X138697001Y-96486290D01*
X138696985Y-96486308D01*
X138528077Y-96711943D01*
X138528072Y-96711951D01*
X138392994Y-96959328D01*
X138392992Y-96959332D01*
X138341703Y-97096845D01*
X138299430Y-97210185D01*
X138294488Y-97223434D01*
X138234575Y-97498846D01*
X138214467Y-97779998D01*
X138214467Y-97780001D01*
X138234575Y-98061153D01*
X138294488Y-98336565D01*
X138294490Y-98336572D01*
X138350544Y-98486859D01*
X138392992Y-98600667D01*
X138392994Y-98600671D01*
X138528072Y-98848048D01*
X138528077Y-98848056D01*
X138696985Y-99073691D01*
X138697001Y-99073709D01*
X138896290Y-99272998D01*
X138896308Y-99273014D01*
X139121943Y-99441922D01*
X139121951Y-99441927D01*
X139369328Y-99577005D01*
X139369332Y-99577007D01*
X139369334Y-99577008D01*
X139633428Y-99675510D01*
X139771140Y-99705467D01*
X139908846Y-99735424D01*
X139908848Y-99735424D01*
X139908852Y-99735425D01*
X140158696Y-99753294D01*
X140189999Y-99755533D01*
X140190000Y-99755533D01*
X140190001Y-99755533D01*
X140218167Y-99753518D01*
X140471148Y-99735425D01*
X140746572Y-99675510D01*
X141010666Y-99577008D01*
X141258054Y-99441924D01*
X141483699Y-99273008D01*
X141683008Y-99073699D01*
X141851924Y-98848054D01*
X141987008Y-98600666D01*
X142085510Y-98336572D01*
X142145425Y-98061148D01*
X142165533Y-97780000D01*
X142145425Y-97498852D01*
X142130797Y-97431610D01*
X142101868Y-97298625D01*
X142085510Y-97223428D01*
X141987008Y-96959334D01*
X141977501Y-96941924D01*
X141851927Y-96711951D01*
X141851922Y-96711943D01*
X141683014Y-96486308D01*
X141682998Y-96486290D01*
X141483709Y-96287001D01*
X141483691Y-96286985D01*
X141302482Y-96151334D01*
X141260610Y-96095400D01*
X141255626Y-96025709D01*
X141289108Y-95964390D01*
X141819739Y-95433758D01*
X141881060Y-95400275D01*
X141950752Y-95405259D01*
X142006685Y-95447131D01*
X142031102Y-95512594D01*
X142034575Y-95561153D01*
X142094488Y-95836565D01*
X142094490Y-95836572D01*
X142137920Y-95953011D01*
X142192992Y-96100667D01*
X142192994Y-96100671D01*
X142328072Y-96348048D01*
X142328077Y-96348056D01*
X142496985Y-96573691D01*
X142497001Y-96573709D01*
X142696290Y-96772998D01*
X142696308Y-96773014D01*
X142921943Y-96941922D01*
X142921946Y-96941924D01*
X143024928Y-96998156D01*
X143074332Y-97047559D01*
X143089500Y-97106987D01*
X143089500Y-98688696D01*
X143124103Y-98862658D01*
X143124105Y-98862666D01*
X143151803Y-98929534D01*
X143151803Y-98929535D01*
X143191984Y-99026542D01*
X143191985Y-99026544D01*
X143251063Y-99114960D01*
X143251064Y-99114961D01*
X143290534Y-99174034D01*
X143290535Y-99174035D01*
X143290536Y-99174036D01*
X144886500Y-100770000D01*
X146364320Y-102247819D01*
X146397805Y-102309142D01*
X146392821Y-102378834D01*
X146350949Y-102434767D01*
X146285485Y-102459184D01*
X146276639Y-102459500D01*
X114429362Y-102459500D01*
X114362323Y-102439815D01*
X114341681Y-102423181D01*
X113161819Y-101243319D01*
X113128334Y-101181996D01*
X113125500Y-101155638D01*
X113125500Y-89871310D01*
X113125500Y-89871309D01*
X113124789Y-89867734D01*
X113090895Y-89697334D01*
X113056078Y-89613280D01*
X113048817Y-89595750D01*
X113023014Y-89533456D01*
X113023013Y-89533453D01*
X112950150Y-89424406D01*
X112950150Y-89424405D01*
X112950148Y-89424404D01*
X112924464Y-89385964D01*
X112924463Y-89385962D01*
X112924461Y-89385960D01*
X110069035Y-86530535D01*
X110069030Y-86530531D01*
X110009961Y-86491064D01*
X110009960Y-86491063D01*
X109921544Y-86431985D01*
X109921542Y-86431984D01*
X109839524Y-86398012D01*
X109757666Y-86364105D01*
X109757658Y-86364103D01*
X109583696Y-86329500D01*
X109583692Y-86329500D01*
X109583691Y-86329500D01*
X105527346Y-86329500D01*
X105349962Y-86329500D01*
X105349957Y-86329500D01*
X105175995Y-86364103D01*
X105175987Y-86364105D01*
X105094130Y-86398012D01*
X105012103Y-86431988D01*
X104923694Y-86491063D01*
X104923693Y-86491064D01*
X104864615Y-86530537D01*
X103258889Y-88136263D01*
X103197566Y-88169748D01*
X103127874Y-88164764D01*
X103071941Y-88122892D01*
X103047524Y-88057428D01*
X103047208Y-88048276D01*
X103052096Y-86229998D01*
X118109773Y-86229998D01*
X118109773Y-86230001D01*
X118128657Y-86494027D01*
X118128658Y-86494034D01*
X118184921Y-86752673D01*
X118277426Y-87000690D01*
X118277428Y-87000694D01*
X118404280Y-87233005D01*
X118404285Y-87233013D01*
X118562906Y-87444907D01*
X118562922Y-87444925D01*
X118750074Y-87632077D01*
X118750092Y-87632093D01*
X118961986Y-87790714D01*
X118961994Y-87790719D01*
X119194305Y-87917571D01*
X119194309Y-87917573D01*
X119194311Y-87917574D01*
X119442322Y-88010077D01*
X119442325Y-88010077D01*
X119442326Y-88010078D01*
X119617921Y-88048276D01*
X119700974Y-88066343D01*
X119944660Y-88083772D01*
X119964999Y-88085227D01*
X119965000Y-88085227D01*
X119965001Y-88085227D01*
X119983885Y-88083876D01*
X120229026Y-88066343D01*
X120487678Y-88010077D01*
X120735689Y-87917574D01*
X120968011Y-87790716D01*
X121179915Y-87632087D01*
X121367087Y-87444915D01*
X121525716Y-87233011D01*
X121652574Y-87000689D01*
X121745077Y-86752678D01*
X121801343Y-86494026D01*
X121820227Y-86230000D01*
X121801343Y-85965974D01*
X121745077Y-85707322D01*
X121664564Y-85491459D01*
X121659581Y-85421772D01*
X121693066Y-85360449D01*
X121744199Y-85329638D01*
X121828657Y-85303587D01*
X121828667Y-85303583D01*
X122054841Y-85194664D01*
X122054842Y-85194663D01*
X122262274Y-85053239D01*
X122446301Y-84882488D01*
X122602830Y-84686206D01*
X122728354Y-84468793D01*
X122820070Y-84235104D01*
X122820075Y-84235087D01*
X122875936Y-83990343D01*
X122894697Y-83740004D01*
X122894697Y-83739995D01*
X124034802Y-83739995D01*
X124034802Y-83740004D01*
X124053567Y-83990419D01*
X124109411Y-84235087D01*
X124109448Y-84235247D01*
X124163712Y-84373508D01*
X124201194Y-84469011D01*
X124201193Y-84469011D01*
X124266674Y-84582426D01*
X124326755Y-84686489D01*
X124439537Y-84827913D01*
X124483331Y-84882829D01*
X124604212Y-84994989D01*
X124667414Y-85053632D01*
X124874901Y-85195094D01*
X124874906Y-85195096D01*
X124874907Y-85195097D01*
X124874908Y-85195098D01*
X124941142Y-85226994D01*
X125101151Y-85304050D01*
X125101152Y-85304050D01*
X125101155Y-85304052D01*
X125194596Y-85332874D01*
X125252854Y-85371444D01*
X125281012Y-85435389D01*
X125274227Y-85494698D01*
X125194921Y-85707326D01*
X125138658Y-85965965D01*
X125138657Y-85965972D01*
X125119773Y-86229998D01*
X125119773Y-86230001D01*
X125138657Y-86494027D01*
X125138658Y-86494034D01*
X125194921Y-86752673D01*
X125287426Y-87000690D01*
X125287428Y-87000694D01*
X125414280Y-87233005D01*
X125414285Y-87233013D01*
X125572906Y-87444907D01*
X125572922Y-87444925D01*
X125760074Y-87632077D01*
X125760092Y-87632093D01*
X125971986Y-87790714D01*
X125971994Y-87790719D01*
X126204305Y-87917571D01*
X126204309Y-87917573D01*
X126204311Y-87917574D01*
X126452322Y-88010077D01*
X126452325Y-88010077D01*
X126452326Y-88010078D01*
X126627921Y-88048276D01*
X126710974Y-88066343D01*
X126954660Y-88083772D01*
X126974999Y-88085227D01*
X126975000Y-88085227D01*
X126975001Y-88085227D01*
X126993885Y-88083876D01*
X127239026Y-88066343D01*
X127497678Y-88010077D01*
X127745689Y-87917574D01*
X127978011Y-87790716D01*
X128189915Y-87632087D01*
X128377087Y-87444915D01*
X128535716Y-87233011D01*
X128662574Y-87000689D01*
X128755077Y-86752678D01*
X128811343Y-86494026D01*
X128827366Y-86269998D01*
X130864773Y-86269998D01*
X130864773Y-86270001D01*
X130883657Y-86534027D01*
X130883658Y-86534034D01*
X130939921Y-86792673D01*
X131032426Y-87040690D01*
X131032428Y-87040694D01*
X131159280Y-87273005D01*
X131159285Y-87273013D01*
X131317906Y-87484907D01*
X131317922Y-87484925D01*
X131505074Y-87672077D01*
X131505092Y-87672093D01*
X131716986Y-87830714D01*
X131716994Y-87830719D01*
X131949305Y-87957571D01*
X131949309Y-87957573D01*
X131949311Y-87957574D01*
X132197322Y-88050077D01*
X132197325Y-88050077D01*
X132197326Y-88050078D01*
X132272091Y-88066342D01*
X132455974Y-88106343D01*
X132699660Y-88123772D01*
X132719999Y-88125227D01*
X132720000Y-88125227D01*
X132720001Y-88125227D01*
X132738885Y-88123876D01*
X132984026Y-88106343D01*
X133242678Y-88050077D01*
X133490689Y-87957574D01*
X133723011Y-87830716D01*
X133934915Y-87672087D01*
X134122087Y-87484915D01*
X134280716Y-87273011D01*
X134407574Y-87040689D01*
X134500077Y-86792678D01*
X134556343Y-86534026D01*
X134575227Y-86270000D01*
X134556343Y-86005974D01*
X134500077Y-85747322D01*
X134419564Y-85531459D01*
X134414581Y-85461772D01*
X134448066Y-85400449D01*
X134499199Y-85369638D01*
X134583657Y-85343587D01*
X134583667Y-85343583D01*
X134809841Y-85234664D01*
X134809842Y-85234663D01*
X135017274Y-85093239D01*
X135201301Y-84922488D01*
X135357830Y-84726206D01*
X135483354Y-84508793D01*
X135575070Y-84275104D01*
X135575075Y-84275087D01*
X135630936Y-84030343D01*
X135649697Y-83780004D01*
X135649697Y-83779995D01*
X136789802Y-83779995D01*
X136789802Y-83780004D01*
X136808567Y-84030419D01*
X136861877Y-84263983D01*
X136864448Y-84275247D01*
X136864450Y-84275252D01*
X136956194Y-84509011D01*
X136956193Y-84509011D01*
X137012217Y-84606046D01*
X137081755Y-84726489D01*
X137194537Y-84867913D01*
X137238331Y-84922829D01*
X137379303Y-85053631D01*
X137422414Y-85093632D01*
X137629901Y-85235094D01*
X137629906Y-85235096D01*
X137629907Y-85235097D01*
X137629908Y-85235098D01*
X137696142Y-85266994D01*
X137856151Y-85344050D01*
X137856152Y-85344050D01*
X137856155Y-85344052D01*
X137949596Y-85372874D01*
X138007854Y-85411444D01*
X138036012Y-85475389D01*
X138029227Y-85534698D01*
X137949921Y-85747326D01*
X137893658Y-86005965D01*
X137893657Y-86005972D01*
X137874773Y-86269998D01*
X137874773Y-86270001D01*
X137893657Y-86534027D01*
X137893658Y-86534034D01*
X137949921Y-86792673D01*
X138042426Y-87040690D01*
X138042428Y-87040694D01*
X138169280Y-87273005D01*
X138169285Y-87273013D01*
X138327906Y-87484907D01*
X138327922Y-87484925D01*
X138515074Y-87672077D01*
X138515092Y-87672093D01*
X138726986Y-87830714D01*
X138726994Y-87830719D01*
X138959305Y-87957571D01*
X138959309Y-87957573D01*
X138959311Y-87957574D01*
X139207322Y-88050077D01*
X139207325Y-88050077D01*
X139207326Y-88050078D01*
X139282091Y-88066342D01*
X139465974Y-88106343D01*
X139709660Y-88123772D01*
X139729999Y-88125227D01*
X139730000Y-88125227D01*
X139730001Y-88125227D01*
X139748885Y-88123876D01*
X139994026Y-88106343D01*
X140252678Y-88050077D01*
X140500689Y-87957574D01*
X140733011Y-87830716D01*
X140944915Y-87672087D01*
X141132087Y-87484915D01*
X141290716Y-87273011D01*
X141417574Y-87040689D01*
X141510077Y-86792678D01*
X141566343Y-86534026D01*
X141585227Y-86270000D01*
X141566343Y-86005974D01*
X141539677Y-85883393D01*
X141510078Y-85747326D01*
X141495157Y-85707322D01*
X141417574Y-85499311D01*
X141413724Y-85492261D01*
X141290719Y-85266994D01*
X141290714Y-85266986D01*
X141132093Y-85055092D01*
X141132077Y-85055074D01*
X140944925Y-84867922D01*
X140944907Y-84867906D01*
X140733013Y-84709285D01*
X140733005Y-84709280D01*
X140500694Y-84582428D01*
X140500690Y-84582426D01*
X140252673Y-84489921D01*
X140154116Y-84468482D01*
X140092793Y-84434997D01*
X140059308Y-84373674D01*
X140064292Y-84303983D01*
X140065004Y-84302120D01*
X140075552Y-84275247D01*
X140131432Y-84030421D01*
X140147780Y-83812270D01*
X140150198Y-83780004D01*
X140150198Y-83779995D01*
X140131432Y-83529580D01*
X140122302Y-83489579D01*
X140075552Y-83284753D01*
X139983806Y-83050989D01*
X139983805Y-83050988D01*
X139983806Y-83050988D01*
X139926805Y-82952261D01*
X139858245Y-82833511D01*
X139701672Y-82637175D01*
X139701671Y-82637174D01*
X139701668Y-82637170D01*
X139517586Y-82466368D01*
X139310099Y-82324906D01*
X139310095Y-82324904D01*
X139310092Y-82324902D01*
X139310091Y-82324901D01*
X139083847Y-82215949D01*
X139083849Y-82215949D01*
X138843887Y-82141930D01*
X138843883Y-82141929D01*
X138843879Y-82141928D01*
X138724432Y-82123924D01*
X138595566Y-82104500D01*
X138595561Y-82104500D01*
X138344439Y-82104500D01*
X138344433Y-82104500D01*
X138189792Y-82127809D01*
X138096121Y-82141928D01*
X138096118Y-82141929D01*
X138096112Y-82141930D01*
X137856151Y-82215949D01*
X137629908Y-82324901D01*
X137629907Y-82324902D01*
X137629901Y-82324905D01*
X137629901Y-82324906D01*
X137605538Y-82341515D01*
X137422413Y-82466368D01*
X137238331Y-82637170D01*
X137081755Y-82833511D01*
X136956194Y-83050988D01*
X136864450Y-83284747D01*
X136864445Y-83284764D01*
X136808567Y-83529580D01*
X136789802Y-83779995D01*
X135649697Y-83779995D01*
X135630936Y-83529656D01*
X135575075Y-83284912D01*
X135575070Y-83284895D01*
X135483354Y-83051206D01*
X135357830Y-82833793D01*
X135201301Y-82637511D01*
X135017274Y-82466760D01*
X134809842Y-82325336D01*
X134809841Y-82325335D01*
X134583664Y-82216415D01*
X134583666Y-82216415D01*
X134343776Y-82142419D01*
X134343770Y-82142418D01*
X134095529Y-82105000D01*
X133844470Y-82105000D01*
X133596229Y-82142418D01*
X133596223Y-82142419D01*
X133356337Y-82216414D01*
X133130155Y-82325338D01*
X133130151Y-82325340D01*
X132922728Y-82466758D01*
X132738698Y-82637511D01*
X132582169Y-82833793D01*
X132456645Y-83051206D01*
X132364929Y-83284895D01*
X132364924Y-83284912D01*
X132309063Y-83529656D01*
X132290303Y-83779995D01*
X132290303Y-83780004D01*
X132309063Y-84030343D01*
X132364924Y-84275087D01*
X132364927Y-84275098D01*
X132376235Y-84303911D01*
X132382402Y-84373508D01*
X132349964Y-84435391D01*
X132289218Y-84469913D01*
X132287165Y-84470378D01*
X132197327Y-84489921D01*
X131949309Y-84582426D01*
X131949305Y-84582428D01*
X131716994Y-84709280D01*
X131716986Y-84709285D01*
X131505092Y-84867906D01*
X131505074Y-84867922D01*
X131317922Y-85055074D01*
X131317906Y-85055092D01*
X131159285Y-85266986D01*
X131159280Y-85266994D01*
X131032428Y-85499305D01*
X131032426Y-85499309D01*
X130939921Y-85747326D01*
X130883658Y-86005965D01*
X130883657Y-86005972D01*
X130864773Y-86269998D01*
X128827366Y-86269998D01*
X128830227Y-86230000D01*
X128811343Y-85965974D01*
X128763779Y-85747326D01*
X128755078Y-85707326D01*
X128751935Y-85698900D01*
X128662574Y-85459311D01*
X128640733Y-85419313D01*
X128535719Y-85226994D01*
X128535714Y-85226986D01*
X128377093Y-85015092D01*
X128377077Y-85015074D01*
X128189925Y-84827922D01*
X128189907Y-84827906D01*
X127978013Y-84669285D01*
X127978005Y-84669280D01*
X127745694Y-84542428D01*
X127745690Y-84542426D01*
X127497673Y-84449921D01*
X127399116Y-84428482D01*
X127337793Y-84394997D01*
X127304308Y-84333674D01*
X127309292Y-84263983D01*
X127310004Y-84262120D01*
X127320552Y-84235247D01*
X127376432Y-83990421D01*
X127389783Y-83812261D01*
X127395198Y-83740004D01*
X127395198Y-83739995D01*
X127376432Y-83489580D01*
X127376432Y-83489579D01*
X127320552Y-83244753D01*
X127228806Y-83010989D01*
X127228805Y-83010988D01*
X127228806Y-83010988D01*
X127182847Y-82931385D01*
X127103245Y-82793511D01*
X126946672Y-82597175D01*
X126946671Y-82597174D01*
X126946668Y-82597170D01*
X126762586Y-82426368D01*
X126756329Y-82422102D01*
X126555099Y-82284906D01*
X126555095Y-82284904D01*
X126555092Y-82284902D01*
X126555091Y-82284901D01*
X126328847Y-82175949D01*
X126328849Y-82175949D01*
X126088887Y-82101930D01*
X126088883Y-82101929D01*
X126088879Y-82101928D01*
X125969432Y-82083924D01*
X125840566Y-82064500D01*
X125840561Y-82064500D01*
X125589439Y-82064500D01*
X125589433Y-82064500D01*
X125434792Y-82087809D01*
X125341121Y-82101928D01*
X125341118Y-82101929D01*
X125341112Y-82101930D01*
X125101151Y-82175949D01*
X124874908Y-82284901D01*
X124874907Y-82284902D01*
X124874901Y-82284905D01*
X124874901Y-82284906D01*
X124850538Y-82301515D01*
X124667413Y-82426368D01*
X124483331Y-82597170D01*
X124326755Y-82793511D01*
X124201194Y-83010988D01*
X124109450Y-83244747D01*
X124109445Y-83244764D01*
X124053567Y-83489580D01*
X124034802Y-83739995D01*
X122894697Y-83739995D01*
X122875936Y-83489656D01*
X122820075Y-83244912D01*
X122820070Y-83244895D01*
X122728354Y-83011206D01*
X122602830Y-82793793D01*
X122446301Y-82597511D01*
X122262274Y-82426760D01*
X122054842Y-82285336D01*
X122054841Y-82285335D01*
X121828664Y-82176415D01*
X121828666Y-82176415D01*
X121588776Y-82102419D01*
X121588770Y-82102418D01*
X121340529Y-82065000D01*
X121089470Y-82065000D01*
X120841229Y-82102418D01*
X120841223Y-82102419D01*
X120601337Y-82176414D01*
X120375155Y-82285338D01*
X120375151Y-82285340D01*
X120167728Y-82426758D01*
X119983698Y-82597511D01*
X119827169Y-82793793D01*
X119701645Y-83011206D01*
X119609929Y-83244895D01*
X119609924Y-83244912D01*
X119554063Y-83489656D01*
X119535303Y-83739995D01*
X119535303Y-83740004D01*
X119554063Y-83990343D01*
X119609924Y-84235087D01*
X119609927Y-84235098D01*
X119621235Y-84263911D01*
X119627402Y-84333508D01*
X119594964Y-84395391D01*
X119534218Y-84429913D01*
X119532165Y-84430378D01*
X119442327Y-84449921D01*
X119194309Y-84542426D01*
X119194305Y-84542428D01*
X118961994Y-84669280D01*
X118961986Y-84669285D01*
X118750092Y-84827906D01*
X118750074Y-84827922D01*
X118562922Y-85015074D01*
X118562906Y-85015092D01*
X118404285Y-85226986D01*
X118404280Y-85226994D01*
X118277428Y-85459305D01*
X118277426Y-85459309D01*
X118184921Y-85707326D01*
X118128658Y-85965965D01*
X118128657Y-85965972D01*
X118109773Y-86229998D01*
X103052096Y-86229998D01*
X103059856Y-83343632D01*
X103064586Y-81584167D01*
X103084451Y-81517180D01*
X103137378Y-81471568D01*
X103188586Y-81460500D01*
X131183227Y-81460500D01*
X204270639Y-81539778D01*
G37*
%TD.AperFunction*%
%TA.AperFunction,Conductor*%
G36*
X160774001Y-92380185D02*
G01*
X160816320Y-92426047D01*
X160867310Y-92521444D01*
X160867315Y-92521450D01*
X160998589Y-92681410D01*
X161044999Y-92719497D01*
X161158550Y-92812685D01*
X161341046Y-92910232D01*
X161539066Y-92970300D01*
X161539065Y-92970300D01*
X161577647Y-92974100D01*
X161693392Y-92985500D01*
X161693395Y-92985500D01*
X162296605Y-92985500D01*
X162296608Y-92985500D01*
X162450934Y-92970300D01*
X162648954Y-92910232D01*
X162831450Y-92812685D01*
X162866335Y-92784055D01*
X162930643Y-92756742D01*
X162999511Y-92768532D01*
X163023663Y-92784054D01*
X163058550Y-92812685D01*
X163241046Y-92910232D01*
X163439066Y-92970300D01*
X163439065Y-92970300D01*
X163477647Y-92974100D01*
X163593392Y-92985500D01*
X163593395Y-92985500D01*
X164196605Y-92985500D01*
X164196608Y-92985500D01*
X164350934Y-92970300D01*
X164548954Y-92910232D01*
X164731450Y-92812685D01*
X164891410Y-92681410D01*
X165022685Y-92521450D01*
X165022686Y-92521446D01*
X165022689Y-92521444D01*
X165073680Y-92426047D01*
X165122642Y-92376202D01*
X165183038Y-92360500D01*
X168150638Y-92360500D01*
X168217677Y-92380185D01*
X168238319Y-92396819D01*
X170063320Y-94221819D01*
X171875536Y-96034035D01*
X171942167Y-96100666D01*
X172000966Y-96159465D01*
X172148446Y-96258009D01*
X172148459Y-96258016D01*
X172283508Y-96313954D01*
X172312334Y-96325894D01*
X172354935Y-96334368D01*
X172486305Y-96360500D01*
X172486308Y-96360500D01*
X172486309Y-96360500D01*
X178658739Y-96360500D01*
X178725778Y-96380185D01*
X178771533Y-96432989D01*
X178781477Y-96502147D01*
X178778005Y-96518434D01*
X178738603Y-96656915D01*
X178738602Y-96656917D01*
X178719785Y-96859999D01*
X178719785Y-96860000D01*
X178738602Y-97063082D01*
X178794417Y-97259247D01*
X178794422Y-97259260D01*
X178875655Y-97422397D01*
X178885327Y-97441821D01*
X178949454Y-97526739D01*
X178974146Y-97592099D01*
X178974500Y-97601465D01*
X178974500Y-99495637D01*
X178954815Y-99562676D01*
X178938181Y-99583318D01*
X176060198Y-102461300D01*
X175998875Y-102494785D01*
X175929183Y-102489801D01*
X175888980Y-102465257D01*
X175881041Y-102458019D01*
X175881034Y-102458015D01*
X175881032Y-102458013D01*
X175707642Y-102350655D01*
X175707635Y-102350651D01*
X175580928Y-102301565D01*
X175517456Y-102276976D01*
X175316976Y-102239500D01*
X175113024Y-102239500D01*
X174912544Y-102276976D01*
X174912541Y-102276976D01*
X174912541Y-102276977D01*
X174722364Y-102350651D01*
X174722362Y-102350652D01*
X174676847Y-102378834D01*
X174576562Y-102440927D01*
X174511287Y-102459500D01*
X165396868Y-102459500D01*
X165329829Y-102439815D01*
X165284074Y-102387011D01*
X165274130Y-102317853D01*
X165277600Y-102301572D01*
X165291397Y-102253083D01*
X165310215Y-102050000D01*
X165291397Y-101846917D01*
X165235582Y-101650750D01*
X165144673Y-101468179D01*
X165021764Y-101305421D01*
X164980961Y-101268224D01*
X164944680Y-101208512D01*
X164940500Y-101176587D01*
X164940500Y-100984027D01*
X164960185Y-100916988D01*
X164985836Y-100888173D01*
X165048910Y-100836410D01*
X165059807Y-100823132D01*
X165180185Y-100676450D01*
X165277732Y-100493954D01*
X165337800Y-100295934D01*
X165353000Y-100141608D01*
X165353000Y-99138392D01*
X165337800Y-98984066D01*
X165277732Y-98786046D01*
X165180185Y-98603550D01*
X165128202Y-98540209D01*
X165048910Y-98443589D01*
X164928549Y-98344813D01*
X164888950Y-98312315D01*
X164706454Y-98214768D01*
X164508434Y-98154700D01*
X164508432Y-98154699D01*
X164508434Y-98154699D01*
X164389305Y-98142966D01*
X164354108Y-98139500D01*
X163725892Y-98139500D01*
X163687798Y-98143251D01*
X163571567Y-98154699D01*
X163373541Y-98214769D01*
X163185677Y-98315186D01*
X163184356Y-98312716D01*
X163129083Y-98329960D01*
X163068546Y-98315336D01*
X162881266Y-98215233D01*
X162683334Y-98155191D01*
X162529085Y-98140000D01*
X161900915Y-98140000D01*
X161746665Y-98155191D01*
X161548733Y-98215233D01*
X161366333Y-98312728D01*
X161366326Y-98312732D01*
X161206444Y-98443944D01*
X161075232Y-98603826D01*
X161075228Y-98603833D01*
X160977733Y-98786233D01*
X160917691Y-98984165D01*
X160902500Y-99138415D01*
X160902500Y-100141584D01*
X160917691Y-100295834D01*
X160977733Y-100493766D01*
X161075228Y-100676166D01*
X161075232Y-100676173D01*
X161206442Y-100836052D01*
X161300612Y-100913335D01*
X161339946Y-100971081D01*
X161341817Y-101040926D01*
X161309628Y-101096870D01*
X160863319Y-101543181D01*
X160801996Y-101576666D01*
X160775638Y-101579500D01*
X158237102Y-101579500D01*
X158170063Y-101559815D01*
X158124308Y-101507011D01*
X158114364Y-101437853D01*
X158122541Y-101408048D01*
X158181395Y-101265960D01*
X158181395Y-101265958D01*
X158240187Y-101021072D01*
X158259947Y-100770000D01*
X158240187Y-100518927D01*
X158181396Y-100274043D01*
X158085019Y-100041368D01*
X157953431Y-99826637D01*
X157953428Y-99826632D01*
X157789869Y-99635130D01*
X157598367Y-99471571D01*
X157598362Y-99471568D01*
X157383631Y-99339980D01*
X157150956Y-99243603D01*
X156906072Y-99184812D01*
X156655000Y-99165052D01*
X156403927Y-99184812D01*
X156159043Y-99243603D01*
X155926368Y-99339980D01*
X155711637Y-99471568D01*
X155711632Y-99471571D01*
X155520130Y-99635130D01*
X155520128Y-99635132D01*
X155499616Y-99659148D01*
X155441108Y-99697339D01*
X155371240Y-99697837D01*
X155312194Y-99660482D01*
X155311114Y-99659236D01*
X155290224Y-99634776D01*
X155132760Y-99500289D01*
X155098656Y-99471161D01*
X155098653Y-99471160D01*
X154883859Y-99339533D01*
X154651110Y-99243126D01*
X154406151Y-99184317D01*
X154217787Y-99169492D01*
X154155000Y-99164551D01*
X154154999Y-99164551D01*
X153904255Y-99184284D01*
X153835878Y-99169919D01*
X153806846Y-99148347D01*
X151920770Y-97262270D01*
X151887285Y-97200947D01*
X151892269Y-97131255D01*
X151934141Y-97075322D01*
X151949998Y-97065231D01*
X151954017Y-97063083D01*
X152038950Y-97017685D01*
X152198910Y-96886410D01*
X152330185Y-96726450D01*
X152347064Y-96694872D01*
X152367817Y-96656047D01*
X152416779Y-96606203D01*
X152477175Y-96590500D01*
X152643693Y-96590500D01*
X152643694Y-96590499D01*
X152817666Y-96555895D01*
X152902925Y-96520579D01*
X152981547Y-96488013D01*
X153082166Y-96420781D01*
X153129036Y-96389464D01*
X155296681Y-94221819D01*
X155358004Y-94188334D01*
X155384362Y-94185500D01*
X157150973Y-94185500D01*
X157218012Y-94205185D01*
X157246827Y-94230836D01*
X157298589Y-94293910D01*
X157381937Y-94362311D01*
X157458550Y-94425185D01*
X157641046Y-94522732D01*
X157839066Y-94582800D01*
X157839065Y-94582800D01*
X157877647Y-94586600D01*
X157993392Y-94598000D01*
X157993395Y-94598000D01*
X158996605Y-94598000D01*
X158996608Y-94598000D01*
X159150934Y-94582800D01*
X159348954Y-94522732D01*
X159531450Y-94425185D01*
X159691410Y-94293910D01*
X159822685Y-94133950D01*
X159920232Y-93951454D01*
X159980300Y-93753434D01*
X159995500Y-93599108D01*
X159995500Y-92970892D01*
X159980300Y-92816566D01*
X159920232Y-92618546D01*
X159879827Y-92542954D01*
X159865585Y-92474551D01*
X159890585Y-92409307D01*
X159946890Y-92367936D01*
X159989185Y-92360500D01*
X160706962Y-92360500D01*
X160774001Y-92380185D01*
G37*
%TD.AperFunction*%
%TA.AperFunction,Conductor*%
G36*
X154207677Y-84160185D02*
G01*
X154228319Y-84176819D01*
X155975536Y-85924035D01*
X156100965Y-86049464D01*
X156248453Y-86148013D01*
X156296452Y-86167895D01*
X156412334Y-86215895D01*
X156586304Y-86250499D01*
X156586308Y-86250500D01*
X156586309Y-86250500D01*
X156763692Y-86250500D01*
X157421653Y-86250500D01*
X157488692Y-86270185D01*
X157534447Y-86322989D01*
X157544391Y-86392147D01*
X157515366Y-86455703D01*
X157480105Y-86483859D01*
X157458829Y-86495230D01*
X157458826Y-86495232D01*
X157298944Y-86626444D01*
X157167732Y-86786326D01*
X157167728Y-86786333D01*
X157070233Y-86968733D01*
X157010191Y-87166665D01*
X156995000Y-87320915D01*
X156995000Y-87949084D01*
X157010191Y-88103334D01*
X157070233Y-88301266D01*
X157170336Y-88488546D01*
X157184578Y-88556949D01*
X157168055Y-88604538D01*
X157170186Y-88605677D01*
X157069769Y-88793541D01*
X157009699Y-88991567D01*
X156994500Y-89145895D01*
X156994500Y-89165500D01*
X156974815Y-89232539D01*
X156922011Y-89278294D01*
X156870500Y-89289500D01*
X156490897Y-89289500D01*
X156423858Y-89269815D01*
X156378103Y-89217011D01*
X156367384Y-89154518D01*
X156369999Y-89125095D01*
X156369999Y-88714907D01*
X156369998Y-88714901D01*
X156359921Y-88601539D01*
X156306771Y-88415784D01*
X156217313Y-88244525D01*
X156095215Y-88094784D01*
X155945474Y-87972686D01*
X155774215Y-87883228D01*
X155588461Y-87830079D01*
X155588458Y-87830078D01*
X155475096Y-87820000D01*
X154014907Y-87820000D01*
X154014901Y-87820001D01*
X153901532Y-87830079D01*
X153878610Y-87836638D01*
X153808742Y-87836154D01*
X153750227Y-87797974D01*
X153721643Y-87734219D01*
X153720500Y-87717422D01*
X153720500Y-86804027D01*
X153740185Y-86736988D01*
X153765836Y-86708173D01*
X153828910Y-86656410D01*
X153875209Y-86599994D01*
X153960185Y-86496450D01*
X154057732Y-86313954D01*
X154117800Y-86115934D01*
X154133000Y-85961608D01*
X154133000Y-84958392D01*
X154117800Y-84804066D01*
X154057732Y-84606046D01*
X153960185Y-84423550D01*
X153920155Y-84374773D01*
X153894215Y-84343164D01*
X153866903Y-84278854D01*
X153878694Y-84209987D01*
X153925847Y-84158427D01*
X153990069Y-84140500D01*
X154140638Y-84140500D01*
X154207677Y-84160185D01*
G37*
%TD.AperFunction*%
%TD*%
M02*
