M48
; DRILL file {KiCad 8.0.7} date 2025-01-11T10:05:44+0100
; FORMAT={-:-/ absolute / inch / decimal}
; #@! TF.CreationDate,2025-01-11T10:05:44+01:00
; #@! TF.GenerationSoftware,Kicad,Pcbnew,8.0.7
; #@! TF.FileFunction,Plated,1,2,PTH
FMAT,2
INCH
; #@! TA.AperFunction,Plated,PTH,ViaDrill
T1C0.0118
; #@! TA.AperFunction,Plated,PTH,ComponentDrill
T2C0.0315
; #@! TA.AperFunction,Plated,PTH,ComponentDrill
T3C0.0390
; #@! TA.AperFunction,Plated,PTH,ComponentDrill
T4C0.0394
; #@! TA.AperFunction,Plated,PTH,ComponentDrill
T5C0.0472
; #@! TA.AperFunction,Plated,PTH,ComponentDrill
T6C0.0512
; #@! TA.AperFunction,Plated,PTH,ViaDrill
T7C0.1181
%
G90
G05
T1
X6.1821Y-3.4502
X6.4648Y-4.0177
X6.6825Y-4.2189
X6.8982Y-4.0685
X7.0797Y-3.8134
T2
X6.0691Y-3.9673
X6.1675Y-3.9673
X6.8502Y-3.3094
X6.8502Y-3.4094
X6.8502Y-4.3094
X6.8502Y-4.4094
X6.9502Y-3.3094
X6.9502Y-3.4094
X6.9502Y-4.3094
X6.9502Y-4.4094
X7.0502Y-3.3094
X7.0502Y-3.4094
X7.0502Y-4.3094
X7.0502Y-4.4094
X7.1502Y-3.3094
X7.1502Y-3.4094
X7.1502Y-4.3094
X7.1502Y-4.4094
X7.2502Y-3.3094
X7.2502Y-3.4094
X7.2502Y-4.3094
X7.2502Y-4.4094
X7.3502Y-3.3094
X7.3502Y-3.4094
X7.3502Y-4.3094
X7.3502Y-4.4094
X7.4502Y-3.3094
X7.4502Y-3.4094
X7.4502Y-4.3094
X7.4502Y-4.4094
X7.5502Y-3.3094
X7.5502Y-3.4094
X7.5502Y-4.3094
X7.5502Y-4.4094
X7.6502Y-3.3094
X7.6502Y-3.4094
X7.6502Y-4.3094
X7.6502Y-4.4094
X7.7502Y-3.3094
X7.7502Y-3.4094
X7.7502Y-4.3094
X7.7502Y-4.4094
T3
X4.7722Y-3.2969
X4.9494Y-3.2969
X5.2744Y-3.2984
X5.4516Y-3.2984
T4
X4.1337Y-3.5157
X4.1337Y-3.6157
X4.1337Y-3.7157
X4.1337Y-3.8157
X4.1337Y-3.9157
X4.1337Y-4.0157
X4.1337Y-4.1157
X4.1337Y-4.2157
X4.2337Y-3.5157
X4.2337Y-3.6157
X4.2337Y-3.7157
X4.2337Y-3.8157
X4.2337Y-3.9157
X4.2337Y-4.0157
X4.2337Y-4.1157
X4.2337Y-4.2157
T5
X7.6573Y-3.7622
X7.6967Y-3.8567
X7.8541Y-3.9512
X7.9329Y-3.7622
X7.9329Y-3.8567
T6
X4.723Y-3.3949
X4.999Y-3.3949
X5.2252Y-3.3965
X5.5012Y-3.3965
X5.5193Y-3.6528
X5.5193Y-3.8496
X5.6689Y-3.7512
T7
X4.1661Y-4.4169
X4.1685Y-3.3106
X7.937Y-4.4098
X7.9374Y-3.3236
M30
